<?xml version="1.0" standalone="no"?>
<!DOCTYPE svg PUBLIC "-//W3C//DTD SVG 20010904//EN"
 "http://www.w3.org/TR/2001/REC-SVG-20010904/DTD/svg10.dtd">
<svg version="1.0" xmlns="http://www.w3.org/2000/svg"
 width="700.000000pt" height="700.000000pt" viewBox="0 0 700.000000 700.000000"
 preserveAspectRatio="xMidYMid meet">
<metadata>
Created by potrace 1.14, written by Peter Selinger 2001-2017
</metadata>
<g transform="translate(0.000000,700.000000) scale(0.100000,-0.100000)"
fill="#000000" stroke="none">
<path d="M3150 6990 c0 -6 5 -8 10 -5 6 3 10 1 10 -4 0 -6 -5 -11 -11 -11 -5
0 -8 -4 -5 -8 2 -4 -11 -12 -30 -18 -31 -10 -50 -2 -21 9 6 3 -3 4 -22 2 -18
-2 -35 -6 -38 -8 -2 -3 -18 -1 -34 3 -16 5 -27 5 -24 0 3 -4 -2 -10 -9 -13
-11 -4 -14 0 -11 16 4 22 4 22 -14 -2 -14 -18 -20 -21 -26 -11 -6 9 -4 11 5 5
8 -5 11 -4 6 3 -4 6 -13 9 -21 6 -8 -4 -13 -10 -10 -14 7 -12 -20 -6 -37 7
-10 9 -18 8 -32 -2 -10 -8 -25 -11 -34 -8 -11 5 -14 2 -10 -9 4 -8 2 -21 -4
-29 -8 -11 -8 -10 -4 5 5 15 4 17 -7 8 -8 -7 -18 -8 -23 -4 -4 4 -3 0 4 -9 11
-14 9 -16 -13 -11 -14 2 -23 8 -20 12 6 10 -52 7 -62 -4 -5 -5 -2 -6 6 -1 9 5
12 4 7 -3 -4 -6 -13 -9 -21 -5 -9 3 -22 0 -29 -6 -10 -9 -16 -9 -21 -1 -4 6
-4 14 -1 17 3 4 6 1 6 -6 0 -7 5 -9 10 -6 6 3 10 10 10 15 0 12 -33 5 -38 -8
-2 -7 -9 -9 -15 -5 -7 4 -5 -2 3 -12 12 -15 12 -17 1 -10 -11 6 -13 4 -8 -8 3
-9 1 -19 -5 -23 -7 -4 -8 -3 -4 4 4 7 1 12 -9 12 -9 0 -14 -4 -11 -8 3 -5 -8
-8 -25 -8 -16 0 -29 4 -29 10 0 6 -5 4 -10 -4 -9 -13 -10 -13 -10 0 0 13 -1
13 -10 0 -5 -8 -10 -10 -10 -4 0 7 -13 11 -29 10 -21 0 -27 -4 -20 -12 7 -8 6
-14 -1 -19 -6 -3 -8 -10 -5 -15 3 -5 1 -11 -4 -15 -6 -3 -8 5 -5 20 2 14 0 25
-6 25 -5 0 -9 -3 -9 -7 4 -22 -2 -43 -12 -43 -5 0 -8 4 -5 8 9 14 -61 7 -79
-8 -11 -9 -16 -10 -11 -2 4 6 5 12 2 12 -3 0 -12 -15 -20 -32 l-15 -33 4 30
c4 27 3 28 -9 13 -7 -10 -17 -14 -22 -10 -4 4 -3 0 3 -9 10 -13 8 -15 -15 -13
-15 2 -37 5 -49 8 -17 4 -20 1 -16 -11 4 -11 3 -14 -6 -9 -8 5 -14 1 -17 -11
-3 -10 -14 -25 -26 -32 -11 -7 -17 -8 -14 -3 3 6 0 12 -6 15 -16 5 -58 -13
-58 -26 0 -5 8 -3 18 4 9 7 6 1 -8 -14 -13 -15 -30 -25 -37 -23 -7 3 -13 1
-13 -5 0 -6 -4 -7 -10 -4 -12 7 -52 -13 -46 -23 3 -5 0 -14 -6 -22 -8 -12 -9
-12 -4 2 3 10 1 20 -4 23 -6 4 -10 -4 -11 -17 0 -13 -3 -17 -6 -10 -4 10 -8 9
-17 -4 -10 -13 -15 -14 -21 -4 -5 9 -4 11 3 6 7 -4 12 -2 12 4 0 15 -51 4 -69
-16 -9 -9 -11 -14 -5 -10 16 8 27 -25 14 -38 -8 -8 -9 -6 -5 7 4 10 2 17 -4
17 -6 0 -11 -5 -11 -11 0 -6 -7 -8 -15 -5 -11 4 -15 0 -13 -11 2 -13 -4 -17
-29 -16 -18 0 -30 -4 -27 -9 3 -4 9 -6 14 -3 5 3 11 1 15 -4 6 -11 -27 -7 -48
5 -7 5 -6 0 3 -11 14 -17 14 -18 -6 -7 -29 15 -48 -3 -33 -31 8 -14 8 -18 0
-12 -7 4 -23 -1 -38 -10 -14 -9 -23 -13 -20 -8 3 5 2 15 -4 23 -7 13 -9 12 -9
-2 0 -10 -5 -18 -11 -18 -5 0 -7 5 -3 12 5 7 3 8 -5 3 -7 -4 -11 -15 -8 -25 3
-13 0 -17 -9 -13 -8 3 -14 -1 -14 -11 0 -10 -5 -13 -16 -9 -13 5 -15 2 -10
-13 3 -10 1 -26 -5 -34 -9 -13 -10 -12 -5 3 3 9 1 17 -4 17 -6 0 -10 -5 -10
-11 0 -5 -6 -7 -12 -3 -9 5 -9 2 1 -9 17 -21 8 -22 -12 -2 -13 13 -16 13 -27
-1 -11 -12 -10 -13 3 -9 8 4 17 2 20 -2 3 -5 -9 -10 -26 -11 -17 -2 -36 -7
-41 -12 -6 -6 -1 -8 13 -5 13 2 19 0 15 -6 -3 -6 -8 -8 -11 -5 -3 3 -15 1 -26
-5 -15 -8 -18 -8 -12 1 5 8 3 11 -6 8 -8 -3 -13 -12 -11 -21 2 -12 -2 -15 -14
-10 -14 5 -15 3 -5 -15 8 -15 8 -23 -1 -28 -6 -4 -8 -3 -5 3 7 11 -22 28 -31
18 -3 -3 0 -5 7 -5 7 0 9 -5 6 -10 -4 -6 -10 -8 -15 -5 -4 3 -13 -2 -20 -10
-11 -13 -10 -14 4 -9 12 5 15 2 10 -10 -3 -9 -10 -13 -15 -10 -5 3 -9 -1 -9
-8 0 -9 -3 -9 -10 2 -6 10 -10 11 -10 3 0 -7 -9 -13 -21 -13 -13 0 -18 4 -13
13 4 7 3 8 -2 4 -5 -5 -10 -25 -12 -45 -2 -20 -4 -43 -4 -49 -1 -7 -4 -11 -6
-8 -3 3 -11 0 -19 -6 -7 -6 -13 -8 -13 -4 0 4 -7 2 -15 -5 -11 -9 -19 -9 -28
-2 -10 8 -13 6 -14 -9 -1 -12 3 -17 9 -13 7 4 8 2 4 -5 -4 -6 -12 -9 -17 -6
-9 6 -13 -7 -10 -35 1 -10 -1 -11 -6 -4 -4 6 -16 13 -26 17 -15 6 -17 3 -12
-12 7 -22 -10 -37 -21 -20 -5 8 -3 9 6 4 9 -5 11 -4 6 4 -6 8 -12 9 -20 2 -7
-6 -17 -7 -21 -3 -5 4 -5 2 -1 -5 9 -16 -39 -110 -48 -95 -4 7 -3 12 2 12 6 0
13 7 16 15 5 13 1 12 -19 -2 -22 -17 -36 -41 -16 -29 10 6 25 -24 16 -32 -3
-3 -5 0 -5 6 0 7 -7 12 -15 12 -8 0 -15 -5 -15 -11 0 -5 6 -7 13 -3 8 5 7 2
-2 -9 -11 -14 -16 -15 -29 -5 -13 10 -14 10 -8 1 4 -7 2 -13 -3 -13 -6 0 -11
-4 -11 -10 0 -5 8 -7 18 -4 16 5 16 5 0 -9 -10 -8 -15 -17 -11 -20 3 -4 -2 -7
-12 -7 -15 0 -16 -2 -4 -17 10 -12 11 -15 1 -9 -7 4 -20 2 -28 -5 -8 -6 -17
-9 -21 -6 -3 4 2 9 11 13 9 3 16 11 16 17 0 5 -9 2 -19 -7 -11 -10 -17 -25
-14 -37 4 -15 2 -18 -11 -13 -12 5 -16 0 -17 -17 -1 -13 -1 -28 0 -32 1 -5 -3
-6 -8 -3 -5 4 -12 2 -16 -4 -4 -7 -13 -6 -28 1 -18 9 -20 9 -10 -1 9 -10 7
-17 -12 -32 -20 -16 -23 -23 -14 -39 7 -15 6 -23 -6 -35 -8 -9 -13 -19 -10
-23 2 -5 -5 -17 -17 -27 -12 -11 -18 -14 -15 -8 4 7 0 14 -8 17 -9 4 -12 1 -8
-9 3 -10 0 -12 -10 -8 -12 4 -15 0 -13 -19 2 -13 7 -30 11 -38 7 -11 6 -11 -9
1 -16 13 -18 12 -14 -10 2 -18 -1 -24 -13 -22 -9 1 -16 -5 -16 -13 0 -8 5 -15
11 -15 6 0 3 -5 -7 -11 -9 -5 -23 -7 -30 -3 -9 6 -9 5 0 -8 17 -19 4 -32 -15
-15 -13 10 -14 9 -7 -2 6 -11 4 -13 -11 -8 -18 7 -18 7 0 -8 11 -8 15 -15 9
-15 -19 0 -23 -29 -5 -46 16 -16 15 -17 -9 -12 -22 4 -25 1 -21 -14 2 -10 -1
-18 -7 -18 -7 0 -9 5 -5 13 5 7 1 6 -10 -3 -11 -8 -14 -16 -7 -18 8 -3 8 -10
-1 -25 -6 -12 -10 -23 -9 -25 2 -2 0 -6 -3 -9 -3 -3 -3 7 0 23 6 33 3 31 -19
-14 -8 -18 -12 -30 -8 -28 4 3 8 -1 8 -8 0 -8 -6 -12 -14 -9 -9 4 -11 0 -6
-13 4 -11 3 -15 -5 -10 -7 4 -10 -1 -9 -14 1 -11 7 -20 14 -20 9 0 7 -6 -4
-18 -10 -10 -20 -14 -21 -10 -2 5 -9 5 -14 2 -7 -4 -8 -2 -4 5 4 6 12 9 17 6
5 -4 9 -2 9 4 0 5 -5 13 -10 16 -6 3 -10 1 -10 -5 0 -6 -4 -9 -8 -6 -4 2 -9
-4 -9 -15 -1 -10 4 -19 10 -19 8 0 8 -3 2 -8 -27 -20 -36 -41 -26 -61 8 -14 8
-22 -1 -27 -6 -4 -9 -3 -6 2 3 5 1 14 -6 20 -9 8 -15 5 -23 -12 -6 -13 -8 -23
-4 -22 18 2 25 -3 13 -10 -16 -11 -24 -50 -11 -57 14 -9 11 -22 -7 -29 -14 -5
-15 -4 -5 8 11 13 9 13 -13 3 -13 -6 -21 -14 -18 -17 11 -8 13 -30 3 -30 -5 0
-11 6 -14 13 -3 6 -4 2 -4 -10 1 -12 5 -19 11 -16 5 3 6 1 2 -5 -4 -6 -2 -20
4 -31 7 -14 7 -22 -2 -27 -6 -4 -8 -3 -4 4 3 6 2 13 -3 16 -5 3 -7 -10 -5 -29
2 -28 0 -33 -13 -28 -12 5 -14 3 -8 -7 6 -10 4 -12 -10 -6 -16 6 -16 4 -4 -10
13 -16 12 -16 -8 -6 -19 10 -20 9 -16 -9 4 -13 11 -18 22 -14 9 3 5 -4 -9 -15
-14 -11 -18 -18 -9 -15 10 4 16 0 16 -9 0 -8 -4 -13 -9 -10 -4 3 -8 0 -8 -5 0
-6 6 -11 13 -11 9 0 8 -3 -2 -9 -11 -7 -11 -10 0 -15 8 -3 4 -4 -8 -2 -12 2
-22 1 -21 -3 3 -24 -4 -33 -23 -28 -16 4 -18 3 -8 -9 9 -11 8 -18 -2 -30 -12
-15 -11 -16 11 -10 17 5 21 4 11 -2 -8 -6 -11 -17 -8 -26 3 -8 1 -18 -5 -22
-7 -5 -8 -2 -3 7 5 8 4 10 0 6 -5 -4 -10 -21 -11 -38 -3 -39 -9 -45 -31 -28
-17 12 -17 12 -1 -6 14 -15 20 -16 32 -5 10 7 16 8 16 2 0 -6 -9 -14 -20 -17
-11 -4 -18 -10 -15 -15 3 -5 1 -11 -5 -15 -6 -4 -7 -12 -3 -18 5 -9 3 -9 -8 0
-13 11 -15 8 -11 -18 3 -23 7 -28 14 -18 7 11 8 9 4 -4 -3 -10 -6 -21 -6 -23
0 -3 -4 -3 -9 1 -6 3 -6 -7 0 -27 11 -41 11 -41 -1 -33 -15 9 -12 -2 6 -19 14
-15 14 -16 -1 -16 -13 0 -14 -4 -5 -21 6 -11 9 -25 6 -32 -2 -7 -5 -5 -5 5 -1
9 -5 19 -10 23 -6 3 -8 -7 -5 -22 l4 -28 -13 24 c-12 21 -15 21 -21 6 -4 -11
0 -23 11 -31 17 -13 17 -14 0 -8 -16 6 -17 -21 -17 -526 1 -466 2 -530 15
-520 12 10 15 9 15 -4 0 -9 8 -16 18 -16 16 -1 16 -1 -1 -14 -16 -12 -16 -14
-2 -20 9 -3 13 -10 10 -16 -4 -6 -12 -7 -18 -3 -7 4 -5 -1 3 -11 8 -10 13 -33
12 -50 -2 -25 -1 -28 9 -16 9 13 10 12 5 -3 -3 -10 -6 -21 -6 -23 0 -3 -6 -2
-12 2 -7 4 -4 -3 6 -15 14 -15 15 -20 5 -16 -10 4 -15 -1 -16 -15 -1 -11 3
-20 8 -20 6 0 7 4 4 10 -3 6 -1 10 4 10 14 0 14 -13 1 -26 -6 -6 -6 -15 0 -24
5 -8 10 -10 10 -4 0 6 6 11 14 11 8 0 12 -6 8 -15 -3 -9 -1 -13 5 -9 6 4 13 0
17 -8 3 -8 2 -14 -2 -14 -19 3 -22 -2 -8 -16 8 -9 13 -22 10 -30 -4 -9 0 -15
7 -15 7 0 3 -7 -9 -16 -17 -11 -20 -19 -13 -28 6 -7 7 -16 3 -21 -4 -4 3 -2
16 4 26 14 28 9 6 -13 -9 -9 -11 -16 -4 -16 6 0 8 -5 4 -12 -4 -6 -3 -8 4 -4
6 3 15 -2 21 -11 6 -10 11 -13 11 -7 0 6 -7 17 -15 24 -16 13 -11 30 8 29 8 0
8 -2 -1 -6 -10 -4 -9 -9 4 -24 13 -15 15 -22 6 -31 -14 -14 -16 -32 -4 -24 10
6 12 -25 3 -39 -10 -15 -7 -47 6 -70 7 -11 13 -15 13 -10 0 6 -5 16 -10 21 -7
7 -6 11 4 11 8 0 15 -3 14 -6 -2 -22 4 -30 19 -24 11 4 14 3 9 -5 -14 -22 -16
-53 -3 -47 7 4 5 0 -4 -7 -14 -11 -14 -15 -2 -27 8 -7 12 -19 10 -26 -4 -8 3
-12 16 -11 12 1 21 8 19 15 -1 7 2 10 8 6 8 -5 7 -11 -1 -21 -9 -11 -9 -14 1
-14 7 0 10 -6 7 -14 -3 -7 0 -19 6 -25 9 -9 7 -11 -8 -5 -15 5 -17 4 -9 -5 6
-7 20 -13 32 -14 11 0 19 -4 16 -8 -2 -4 3 -12 11 -19 14 -12 14 -15 0 -30
-13 -15 -14 -20 -3 -32 7 -7 14 -20 16 -27 3 -12 0 -12 -13 -1 -13 11 -15 10
-9 -4 3 -9 10 -16 15 -16 5 0 9 -5 9 -11 0 -5 -4 -7 -10 -4 -6 3 -7 -1 -4 -10
5 -13 9 -12 27 7 15 17 18 18 14 6 -4 -10 -3 -18 2 -18 11 0 21 -38 14 -56 -3
-8 -9 -11 -14 -8 -5 3 -6 -2 -2 -11 4 -12 8 -13 13 -5 6 9 9 9 14 1 4 -6 12
-9 17 -6 5 3 6 -1 3 -9 -4 -9 0 -18 10 -22 12 -5 13 -10 5 -27 -10 -17 -9 -19
5 -14 8 3 18 1 22 -5 4 -7 3 -8 -4 -4 -7 4 -12 2 -12 -4 0 -6 -4 -8 -10 -5 -5
3 -10 1 -10 -4 0 -6 5 -11 11 -11 5 0 7 -5 3 -11 -4 -7 2 -7 17 1 13 7 20 9
16 4 -4 -4 3 -14 15 -22 13 -7 16 -11 7 -9 -9 3 -16 -1 -16 -8 0 -7 8 -12 17
-10 9 2 17 -3 17 -10 0 -8 -4 -12 -8 -10 -3 3 -13 -3 -20 -13 -13 -15 -12 -16
3 -4 14 11 18 10 30 -7 8 -12 19 -18 24 -13 4 4 2 -2 -6 -12 -12 -16 -12 -18
-1 -11 11 6 13 2 9 -19 -4 -21 -3 -24 8 -15 10 8 14 8 14 0 0 -6 5 -11 11 -11
5 0 7 5 3 12 -4 6 -3 8 3 5 6 -4 9 -19 7 -34 -3 -27 -2 -27 12 -8 15 19 15 18
10 -10 -4 -16 -3 -24 0 -17 8 17 27 15 21 -2 -3 -8 -3 -17 1 -20 3 -4 8 -19
10 -34 2 -15 9 -30 15 -34 9 -6 8 -8 -2 -8 -8 0 -11 -3 -8 -6 4 -4 13 -2 21 5
11 9 15 8 20 -5 3 -9 4 -19 1 -24 -3 -4 4 -6 15 -3 14 4 20 0 20 -11 0 -9 6
-13 14 -10 11 4 13 0 9 -17 -5 -18 -3 -21 11 -16 10 4 19 1 22 -8 4 -8 11 -12
18 -8 6 4 6 0 -2 -9 -10 -12 -10 -18 -1 -23 8 -6 8 -9 -1 -15 -9 -6 -6 -10 9
-15 19 -6 20 -9 9 -22 -12 -15 -11 -15 10 -4 17 9 22 9 22 -1 1 -15 35 -58 46
-58 4 0 -2 10 -14 23 -17 18 -19 24 -8 24 8 0 13 -4 11 -8 -3 -3 2 -12 10 -19
8 -7 15 -25 15 -41 0 -16 4 -29 10 -29 5 0 9 -5 7 -11 -1 -6 6 -13 16 -14 9
-2 15 1 11 6 -3 5 -10 6 -16 3 -7 -4 -8 -2 -4 5 10 16 39 -7 32 -26 -3 -7 1
-13 9 -13 8 0 15 -5 15 -11 0 -5 -5 -7 -12 -3 -7 4 -8 3 -4 -4 5 -8 15 -8 33
-1 26 10 26 9 10 -9 -19 -21 -14 -32 15 -32 10 0 18 -7 18 -15 0 -8 6 -12 14
-9 18 7 30 -12 15 -22 -8 -5 -9 -3 -4 6 6 9 4 11 -4 6 -13 -9 -6 -21 12 -21 7
-1 11 -7 9 -14 -2 -9 5 -12 23 -9 20 4 23 3 14 -8 -9 -11 -8 -14 4 -14 8 0 18
-10 21 -22 l6 -23 20 23 19 23 -4 -31 c-2 -17 0 -28 6 -25 5 4 9 1 9 -6 0 -7
3 -9 6 -6 4 4 1 13 -6 22 -7 8 -11 15 -9 16 36 7 41 7 31 -3 -11 -11 -4 -48
10 -48 5 0 7 4 4 9 -7 11 21 8 31 -4 4 -4 3 -5 -4 -1 -19 11 -25 -12 -9 -36 9
-12 16 -18 16 -12 0 5 -6 16 -13 24 -10 12 -9 12 5 1 9 -7 23 -9 30 -5 10 6
10 5 0 -8 -11 -14 -10 -16 7 -11 13 3 21 1 21 -6 0 -7 -5 -9 -12 -5 -7 4 -8 3
-4 -5 4 -6 12 -8 18 -5 8 5 9 1 5 -10 -6 -14 -4 -15 16 -5 20 11 21 11 8 -4
-12 -15 -11 -17 5 -18 11 -1 22 -1 26 0 4 0 4 -7 1 -16 -5 -12 -3 -14 8 -8 12
8 12 6 0 -8 -8 -10 -11 -20 -7 -24 3 -3 6 -1 6 5 0 7 7 12 15 12 8 0 15 -4 15
-9 0 -5 7 -12 16 -15 15 -6 15 -4 3 10 -13 16 -12 16 8 4 17 -11 19 -17 11
-27 -8 -10 -7 -12 6 -7 12 5 15 2 10 -12 -3 -12 1 -10 11 6 9 14 14 17 11 7
-4 -11 -1 -17 7 -16 6 1 21 1 32 0 16 -1 17 -3 6 -10 -12 -8 -12 -14 -3 -33
l12 -23 -5 25 c-5 25 -5 25 6 2 13 -23 49 -31 49 -9 0 6 5 4 11 -6 6 -9 14
-15 18 -13 4 3 8 -1 8 -9 0 -10 -4 -12 -12 -5 -8 7 -12 5 -12 -5 0 -8 4 -12 8
-9 4 2 13 -4 19 -13 11 -17 11 -17 6 0 -6 20 12 23 20 3 3 -8 13 -17 21 -20
13 -5 14 -4 3 9 -8 10 -9 15 -1 15 6 0 11 -3 12 -7 0 -5 2 -16 4 -25 2 -11 -2
-15 -11 -11 -8 3 -14 1 -14 -4 0 -5 10 -9 23 -10 12 0 27 -1 32 -3 25 -6 46 1
39 12 -5 9 -2 9 9 -1 9 -7 17 -22 17 -32 0 -10 10 -23 21 -30 12 -6 19 -7 16
-2 -3 5 5 9 18 9 13 0 23 -5 22 -10 -1 -6 3 -10 9 -9 6 1 11 -5 11 -13 0 -10
-7 -8 -26 8 -14 13 -20 16 -13 7 6 -9 8 -20 4 -24 -4 -5 -2 -5 5 -1 6 3 15 2
18 -4 5 -8 12 -7 23 2 12 10 14 10 8 1 -4 -8 -1 -13 8 -13 9 0 16 6 16 13 0 6
6 3 12 -8 12 -22 35 -38 57 -41 8 -2 18 -9 22 -16 6 -9 9 -9 9 -1 0 6 9 11 20
10 11 -1 20 -5 20 -10 0 -5 -8 -6 -17 -2 -15 5 -16 4 -5 -7 11 -11 16 -10 28
6 14 20 14 20 14 0 0 -11 7 -29 16 -40 8 -10 13 -14 10 -9 -2 6 4 11 14 11 14
0 16 -3 8 -13 -15 -18 -2 -16 30 4 26 17 27 17 12 -2 -8 -10 -10 -16 -3 -12 6
4 14 3 18 -3 4 -6 12 -7 18 -3 8 4 7 1 -1 -9 -18 -22 0 -32 56 -33 32 0 41 3
37 14 -4 10 -2 11 7 4 15 -11 28 -11 48 1 8 5 12 6 8 1 -4 -4 -3 -17 3 -29 10
-21 10 -21 -7 -1 -15 18 -16 18 -10 2 3 -10 6 -21 6 -23 0 -2 8 -4 18 -4 14 0
14 -2 3 -9 -10 -7 -7 -9 12 -8 14 1 23 5 20 10 -2 4 0 7 6 7 5 0 12 -6 15 -12
5 -10 7 -10 12 0 3 6 10 12 15 12 6 0 8 -4 5 -9 -3 -5 1 -11 9 -15 8 -3 17 0
21 6 5 7 2 8 -6 3 -8 -5 -11 -4 -7 3 8 12 32 10 44 -3 4 -4 2 -5 -4 -1 -7 4
-13 2 -13 -3 0 -10 14 -15 33 -12 4 0 6 -2 6 -6 -6 -36 13 -43 45 -16 20 17
20 17 6 -1 -14 -18 -13 -18 9 -11 14 4 21 3 18 -2 -4 -5 1 -10 9 -10 9 0 13 6
10 14 -3 8 -1 11 5 8 5 -4 16 -2 23 4 10 8 17 7 26 -4 9 -10 9 -15 1 -15 -6 0
-11 5 -11 11 0 5 -4 7 -10 4 -20 -12 -9 -23 20 -20 16 2 33 -1 36 -7 5 -7 2
-8 -6 -3 -9 5 -11 4 -6 -3 4 -7 12 -12 18 -12 6 0 19 -10 29 -22 11 -11 19
-16 19 -10 0 7 7 12 16 12 8 0 13 4 10 9 -4 5 3 7 15 4 13 -4 17 -8 9 -13 -8
-5 -7 -9 5 -13 11 -5 14 -3 9 5 -5 8 -2 9 11 4 15 -5 16 -4 5 9 -12 14 -11 15
13 4 21 -10 30 -9 44 2 15 12 16 12 10 -5 -7 -18 -6 -18 17 -2 18 11 27 13 32
4 5 -7 3 -8 -7 -3 -12 8 -12 6 0 -8 15 -19 26 -23 15 -5 -5 7 -2 9 9 5 12 -4
14 -2 10 9 -5 14 -3 14 15 3 12 -7 22 -22 24 -34 3 -20 9 -20 443 -23 242 -1
446 0 454 3 11 4 10 10 -5 27 -19 21 -19 21 3 9 16 -8 24 -8 29 1 4 6 3 8 -4
4 -6 -3 -14 -1 -18 5 -4 7 -3 9 2 6 6 -3 16 -2 24 3 7 5 21 4 31 -3 13 -8 22
-7 35 4 16 12 17 12 11 -4 -6 -15 -4 -16 13 -7 11 6 21 6 24 1 3 -5 15 -7 26
-4 11 3 17 10 14 15 -4 6 5 2 20 -7 14 -10 26 -14 26 -10 0 4 8 1 18 -6 15
-13 16 -12 3 3 -7 10 -18 15 -25 11 -6 -3 -8 -2 -3 2 9 11 48 14 42 4 -3 -4 2
-9 10 -13 8 -3 17 -1 20 5 4 5 11 7 16 4 5 -4 9 -1 9 4 0 15 -13 14 -29 -1 -8
-7 -6 -1 4 15 9 15 19 27 22 27 2 0 1 -5 -3 -11 -4 -8 -1 -8 12 -1 11 6 36 9
57 8 21 -2 40 1 43 5 2 4 -5 6 -17 4 -12 -2 -19 -1 -15 2 11 11 74 9 71 -2 -1
-5 0 -7 2 -4 2 4 12 6 21 4 9 -1 12 0 5 2 -6 2 -14 11 -17 20 -6 14 -4 14 11
2 9 -8 14 -9 11 -4 -4 6 1 19 9 30 15 20 15 20 9 -1 -4 -14 -2 -21 8 -21 9 0
13 8 11 20 -4 15 -2 17 10 7 12 -10 15 -10 16 1 0 8 4 5 9 -6 l9 -20 0 20 c1
15 3 17 10 6 6 -10 10 -10 16 -1 5 8 13 6 28 -7 11 -10 17 -12 12 -4 -5 10 -3
12 12 7 25 -8 52 41 31 57 -9 6 -8 7 5 3 10 -3 23 -6 28 -6 6 0 7 -6 3 -13 -6
-9 -4 -9 7 -1 8 6 22 10 32 8 13 -2 17 2 13 12 -4 10 -2 13 7 7 18 -11 38 -13
31 -2 -3 5 -10 7 -15 4 -5 -3 -6 1 -3 10 6 14 9 14 27 -2 l21 -18 -18 29 c-11
17 -13 25 -5 20 8 -4 35 -9 60 -9 37 -1 46 2 41 14 -4 9 -1 12 7 7 8 -6 11 -2
9 9 -2 13 4 19 20 20 13 1 27 8 32 15 6 10 9 9 13 -1 4 -12 7 -11 16 1 7 10
11 11 11 3 0 -7 7 -10 16 -6 12 4 13 8 3 14 -10 6 -10 11 -1 22 7 7 9 17 6 20
-4 3 6 4 21 1 20 -3 25 -1 19 8 -6 10 -5 10 7 1 9 -7 20 -9 29 -3 9 6 18 5 23
-3 5 -7 7 -3 4 11 -5 20 -2 23 13 19 11 -3 17 0 14 7 -2 6 5 12 16 13 11 1 18
-2 15 -7 -8 -13 21 -6 39 9 11 9 13 17 6 25 -7 9 2 13 35 14 75 3 76 3 62 21
-10 12 -9 14 7 8 16 -6 17 -5 6 8 -11 13 -10 14 4 9 9 -3 16 -1 16 6 0 6 4 9
9 5 5 -3 13 0 17 6 4 8 3 9 -4 5 -7 -4 -12 -3 -12 2 0 5 10 12 21 15 13 4 20
11 16 20 -3 8 1 14 9 14 8 0 14 -4 14 -9 0 -4 5 -8 11 -8 5 0 7 4 4 10 -3 5 0
7 9 4 21 -8 56 14 50 30 -9 24 43 45 59 23 5 -7 6 3 3 23 -4 23 -3 29 2 15 9
-19 9 -19 21 0 9 15 11 15 7 3 -3 -12 -1 -15 9 -11 8 3 12 9 9 14 -3 5 0 9 6
9 6 0 9 4 6 9 -4 5 4 7 16 3 20 -5 21 -3 10 10 -8 10 -9 19 -3 22 5 4 13 0 18
-7 6 -10 12 -10 26 5 9 10 13 18 8 18 -11 0 -8 26 4 37 4 4 5 2 1 -4 -4 -8 -1
-13 8 -13 9 0 13 6 10 14 -3 8 0 17 7 22 8 5 10 3 4 -6 -6 -10 -4 -12 9 -7 10
4 20 7 24 7 3 0 -3 7 -14 15 -18 14 -18 14 4 10 18 -3 21 -1 13 8 -7 10 -5 13
10 14 12 1 17 -3 13 -9 -4 -7 -2 -8 4 -4 9 5 9 13 0 29 -10 20 -10 21 6 8 9
-8 19 -11 23 -7 3 3 1 6 -5 6 -7 0 -12 5 -12 11 0 6 7 8 16 5 12 -4 15 -2 10
9 -3 8 -1 15 4 15 6 0 10 -4 10 -8 0 -5 7 -9 15 -9 11 0 12 4 3 14 -6 7 -8 16
-4 20 3 3 6 2 6 -4 0 -20 26 -21 27 -2 1 12 -3 17 -9 13 -7 -4 -8 -2 -4 4 4 7
14 12 22 12 8 0 12 -4 9 -10 -3 -5 -3 -10 1 -10 9 0 33 32 33 45 0 6 -6 2 -13
-8 -8 -10 -17 -14 -20 -9 -3 6 1 13 10 16 8 3 13 10 10 14 -3 5 9 6 26 4 25
-4 30 -2 25 10 -4 11 0 14 12 11 9 -2 25 6 36 19 11 12 13 17 4 10 -13 -9 -16
-9 -16 2 0 9 9 13 24 11 17 -2 23 2 19 11 -3 8 -1 14 5 14 6 0 7 5 4 10 -4 6
-1 17 5 25 10 12 10 15 0 15 -8 0 -11 2 -8 5 3 3 13 3 22 -1 14 -5 14 -9 4
-23 -12 -14 -11 -14 4 -2 10 7 15 18 12 23 -10 15 17 57 32 51 8 -3 12 -9 9
-13 -3 -5 -1 -11 3 -14 5 -3 8 10 7 29 -1 19 3 35 8 35 5 0 3 7 -4 17 -13 15
-12 15 9 4 22 -12 23 -11 12 8 -6 12 -7 21 -3 20 4 -1 17 -1 28 0 17 1 18 3 5
11 -12 8 -10 10 10 11 14 0 20 3 13 5 -7 3 -9 12 -6 20 5 13 7 13 14 3 10 -17
17 -10 22 22 3 16 10 23 22 21 9 -2 14 1 11 7 -4 6 2 8 14 6 11 -2 23 1 26 7
4 6 3 8 -3 5 -6 -4 -13 2 -16 14 -5 17 -3 18 11 7 12 -10 14 -10 8 -1 -4 8 -2
13 5 13 7 0 9 8 6 21 -4 17 -3 18 9 8 12 -10 13 -9 8 6 -6 14 -4 16 7 10 11
-7 11 -5 -1 10 -14 17 -13 18 5 11 11 -4 16 -4 12 0 -8 9 12 36 23 29 4 -2 6
7 5 20 -2 13 1 23 5 22 5 -1 16 7 25 18 9 11 14 15 11 8 -4 -6 -1 -15 5 -19 8
-4 9 -3 5 4 -4 7 -3 12 3 12 5 0 8 16 6 35 -2 19 1 35 7 35 5 0 6 -4 3 -10 -3
-5 -2 -10 3 -10 5 0 9 13 9 30 0 16 -5 27 -10 23 -6 -3 -7 -1 -3 5 9 15 38 3
29 -12 -3 -6 3 -3 15 8 12 10 19 22 17 26 -3 5 1 11 7 14 7 3 2 3 -12 0 -18
-4 -21 -3 -11 4 8 6 10 15 5 23 -6 12 -5 12 8 1 11 -9 18 -10 23 -2 3 6 10 8
13 6 10 -6 8 56 -2 73 -7 11 -4 11 14 1 12 -7 20 -7 16 -2 -3 6 -3 12 1 15 5
2 3 3 -2 1 -6 -1 -11 6 -11 16 0 14 4 16 17 9 20 -10 48 14 29 26 -8 5 -5 12
7 22 17 14 17 14 -2 8 -14 -4 -17 -3 -10 4 6 6 21 12 35 14 24 4 42 27 20 27
-6 0 -8 -5 -4 -12 5 -7 3 -8 -5 -3 -9 5 -7 12 8 26 20 19 19 49 -1 49 -6 0 -3
11 6 24 11 18 13 27 4 32 -7 5 -8 3 -3 -6 6 -9 4 -11 -5 -5 -10 6 -10 11 3 20
9 7 13 16 9 20 -4 5 -1 5 6 1 7 -4 10 -13 6 -19 -3 -7 1 -3 10 7 8 10 13 22
11 27 -3 4 0 11 6 15 8 4 9 3 5 -4 -4 -7 -3 -12 2 -12 5 0 9 13 9 29 l0 29
-19 -21 -19 -22 15 26 c9 14 14 28 12 30 -3 3 7 6 22 7 14 1 31 7 37 13 7 7 4
8 -10 3 -17 -7 -18 -5 -8 8 15 17 19 56 9 79 -4 10 -3 20 3 23 6 4 8 13 5 20
-3 8 0 17 7 22 7 4 10 3 5 -4 -3 -6 -1 -14 5 -18 7 -4 9 -3 6 2 -3 6 -2 16 4
24 6 11 9 12 9 2 0 -7 5 -10 10 -7 7 4 6 14 -2 28 -10 20 -10 21 6 8 14 -12
16 -12 10 3 -3 9 -11 16 -17 16 -5 0 -2 9 7 19 17 18 17 20 -1 30 -17 10 -17
10 2 11 11 1 14 4 8 7 -7 2 -13 12 -13 21 0 15 2 15 10 2 9 -13 10 -13 10 0 0
12 2 12 9 2 7 -11 9 -11 14 2 3 8 1 17 -6 20 -7 2 -2 5 11 5 12 1 22 6 22 12
0 6 -6 9 -13 6 -7 -3 -13 3 -13 13 0 10 6 16 12 13 7 -2 15 1 20 8 4 7 3 10
-4 5 -17 -10 -25 13 -10 31 11 15 11 16 -4 10 -10 -3 -20 -2 -23 4 -4 5 -3 8
2 7 4 -2 19 6 33 16 14 10 18 16 8 13 -10 -4 -18 1 -21 14 -5 17 -3 18 11 7
14 -11 15 -10 9 5 -4 11 -3 16 3 12 6 -3 10 -1 10 4 0 6 5 11 11 11 5 0 7 -5
3 -12 -5 -7 -3 -8 6 -3 10 6 9 11 -5 22 -11 7 -14 13 -8 13 6 0 14 7 17 16 4
9 2 13 -5 8 -7 -4 -9 0 -5 14 4 12 2 32 -5 44 -11 21 -11 22 5 9 14 -12 16
-12 10 4 -5 13 -4 16 4 11 8 -5 10 -2 5 9 -4 12 -8 13 -13 5 -5 -8 -9 -4 -13
9 -3 12 -1 19 4 15 5 -3 9 2 9 11 0 9 -4 13 -10 10 -6 -3 -7 1 -4 9 3 9 9 14
13 12 4 -3 7 4 7 14 0 15 -3 17 -15 7 -12 -10 -12 -9 -1 10 12 18 17 20 34 11
19 -10 19 -9 8 4 -10 13 -10 18 -1 24 8 4 9 3 5 -4 -4 -7 -2 -12 4 -12 16 0
14 977 -3 987 -18 11 -38 13 -31 2 3 -5 10 -6 16 -3 7 5 8 2 3 -6 -6 -9 -4
-11 5 -5 9 5 11 4 6 -4 -6 -8 -12 -9 -20 -2 -7 6 -15 8 -19 5 -3 -3 -4 2 -2
13 2 10 4 24 4 31 1 8 6 10 14 6 8 -5 8 -2 -2 9 -15 19 -26 23 -15 5 4 -7 3
-8 -4 -4 -6 4 -9 13 -6 21 4 8 11 12 18 8 6 -4 5 1 -3 10 -12 15 -11 17 5 17
16 0 16 2 4 9 -8 6 -19 7 -25 5 -5 -3 1 4 14 15 13 12 18 21 12 21 -5 0 -16
10 -22 23 -12 21 -11 21 6 7 10 -8 16 -9 11 -3 -4 7 -2 22 5 34 9 17 8 20 -2
14 -8 -6 -11 -4 -6 7 7 20 -11 38 -31 31 -11 -5 -13 -3 -7 7 6 10 4 12 -9 7
-14 -6 -15 -4 -5 14 8 17 8 20 -1 14 -9 -5 -10 -1 -5 15 5 16 4 20 -5 15 -7
-4 -4 5 6 21 17 27 17 28 1 15 -10 -8 -20 -11 -24 -7 -3 3 -1 6 6 6 8 0 11 8
8 19 -3 13 0 18 7 15 7 -3 13 2 13 10 0 8 -4 13 -8 11 -4 -3 -9 2 -13 10 -3 8
0 17 6 21 7 5 8 2 3 -6 -6 -9 -4 -11 4 -6 13 9 6 21 -12 21 -5 0 -12 6 -15 14
-3 9 0 11 9 6 8 -5 11 -4 6 1 -5 5 -14 9 -20 9 -7 1 -11 7 -9 14 1 7 -2 10 -8
6 -8 -5 -7 -12 1 -23 11 -15 11 -15 -6 0 -15 14 -16 20 -6 32 9 11 9 15 -1 19
-10 4 -10 6 0 6 14 1 16 37 2 46 -13 8 -13 25 1 25 5 0 7 -5 3 -12 -4 -7 -3
-8 4 -4 17 10 15 16 -10 25 -13 5 -28 5 -34 0 -7 -5 -11 -3 -11 6 0 8 4 12 9
9 13 -8 9 6 -5 21 -10 9 -12 28 -7 64 5 44 4 49 -8 38 -13 -10 -14 -9 -4 9 6
12 7 26 1 35 -5 8 -9 9 -9 2 0 -6 -9 -11 -20 -10 -11 1 -18 7 -16 13 2 6 0 16
-6 22 -6 6 -6 12 3 17 8 6 10 4 4 -6 -5 -8 -4 -10 0 -6 15 13 14 37 -2 37 -12
0 -13 3 -4 14 9 11 6 12 -14 8 -15 -2 -25 0 -25 7 0 7 4 10 9 7 5 -4 4 5 -2
19 -7 14 -15 25 -19 25 -5 0 -8 5 -8 11 0 5 4 8 9 5 13 -8 21 18 11 34 -7 11
-12 11 -27 0 -10 -8 -15 -11 -11 -6 4 5 3 18 -3 30 -10 21 -10 21 7 1 15 -18
16 -18 10 -2 -3 10 -6 21 -6 23 0 2 -9 4 -20 4 -22 0 -26 10 -10 26 6 6 5 15
-1 24 -9 12 -10 11 -5 -5 6 -19 5 -19 -8 -2 -7 9 -18 17 -24 17 -18 0 -23 30
-4 31 12 0 11 3 -6 10 -13 5 -20 13 -17 19 9 15 17 12 9 -2 -5 -10 -3 -10 7 0
12 11 12 14 -1 22 -8 5 -17 7 -21 4 -4 -2 -14 5 -22 16 -7 11 -16 18 -18 15
-3 -2 -5 4 -5 14 0 13 5 17 16 13 11 -4 10 1 -5 18 -17 20 -17 22 -3 17 12 -4
15 -2 11 8 -3 8 -9 12 -14 9 -5 -3 -9 -1 -9 5 0 6 -8 8 -17 4 -10 -3 -15 -3
-11 1 8 9 -14 36 -24 30 -8 -5 -5 17 5 33 8 13 -31 45 -45 37 -12 -8 -10 10 4
24 9 9 9 12 -1 12 -7 0 -10 4 -7 8 2 4 -5 14 -17 22 -20 12 -21 12 -8 -4 12
-14 12 -16 -3 -10 -9 3 -16 13 -16 21 0 21 -40 54 -54 46 -6 -3 -8 -2 -3 2 4
5 -1 18 -10 29 -15 17 -15 19 -1 8 13 -11 18 -11 24 0 4 7 4 10 -1 6 -4 -4
-14 -1 -21 7 -20 19 -17 24 9 19 20 -4 20 -4 2 4 -11 5 -26 7 -34 4 -10 -4
-13 -1 -8 12 4 9 3 15 -1 12 -5 -3 -9 1 -9 8 0 8 7 12 16 9 12 -3 12 -2 -2 7
-9 6 -22 8 -27 5 -6 -4 -7 1 -3 12 6 15 4 16 -9 6 -15 -13 -28 -8 -28 11 0 6
5 4 10 -4 8 -13 10 -12 10 3 0 9 -7 17 -16 17 -8 0 -12 5 -9 10 3 6 0 10 -7
10 -9 0 -9 3 2 10 9 6 10 10 3 10 -6 0 -15 -5 -18 -10 -11 -17 -44 28 -38 50
3 12 0 20 -6 20 -7 0 -9 -5 -5 -12 5 -7 3 -8 -5 -3 -9 5 -6 14 11 32 l23 26
-27 -17 c-25 -16 -27 -16 -37 1 -8 14 -10 15 -11 3 0 -13 -1 -13 -10 0 -5 8
-15 15 -22 15 -7 0 -14 5 -15 10 -2 6 1 10 6 10 5 0 12 3 16 7 4 3 -4 5 -18 4
-15 -2 -32 5 -41 15 -9 11 -12 19 -6 19 5 0 14 -8 19 -17 6 -10 11 -13 11 -7
0 6 -7 17 -15 24 -8 7 -12 17 -8 24 5 7 2 7 -8 -1 -13 -10 -15 -8 -13 17 2 34
1 34 -28 19 -15 -8 -19 -8 -14 0 4 6 2 11 -3 11 -13 0 -10 22 4 32 6 5 5 8 -3
8 -8 0 -10 5 -6 13 5 7 0 6 -11 -3 -17 -14 -18 -13 -11 5 5 15 4 17 -5 8 -14
-14 -2 -36 14 -27 7 4 8 3 4 -1 -10 -12 -39 -16 -32 -5 3 5 1 12 -5 15 -8 5
-8 11 -1 19 8 9 7 13 -4 13 -8 0 -12 -4 -9 -9 3 -4 -2 -8 -11 -8 -10 0 -13 5
-9 12 5 7 2 9 -8 6 -9 -4 -15 0 -15 8 0 8 5 14 10 14 5 0 -3 10 -19 22 -45 35
-54 45 -46 54 4 5 -1 2 -10 -5 -18 -13 -24 -6 -19 22 0 4 -6 7 -14 7 -14 0
-20 12 -16 33 1 4 -8 3 -20 -4 -15 -8 -19 -8 -15 0 4 6 2 11 -3 11 -6 0 -11 8
-11 18 0 15 2 15 11 2 9 -13 10 -13 6 0 -2 8 -10 15 -18 15 -8 1 -13 7 -11 14
1 7 -2 10 -8 6 -8 -5 -7 -11 1 -21 10 -12 9 -13 -5 -8 -15 6 -20 18 -17 37 1
5 -3 6 -9 2 -5 -3 -10 -1 -10 6 0 7 -3 9 -6 6 -4 -4 -1 -13 5 -21 8 -10 9 -16
1 -21 -5 -3 -10 -5 -11 -3 0 2 -3 14 -5 27 -2 14 -7 27 -10 30 -9 10 -34 9
-34 -1 0 -6 6 -8 13 -5 8 3 14 -1 14 -8 0 -11 -5 -12 -21 -2 -12 6 -25 10 -29
9 -5 -1 -5 3 -1 10 13 20 13 37 2 45 -7 3 -8 1 -4 -5 4 -7 1 -12 -8 -12 -19 0
-20 11 -3 30 6 7 -1 5 -18 -5 -16 -10 -27 -14 -23 -10 4 5 2 15 -5 23 -9 13
-9 14 1 8 6 -4 12 -2 12 3 0 6 -7 11 -15 11 -8 0 -15 5 -15 10 0 6 -5 10 -11
10 -5 0 -8 -4 -5 -8 3 -5 -1 -9 -9 -9 -8 0 -11 5 -8 11 4 6 -1 5 -10 -3 -14
-11 -17 -11 -18 0 -1 8 -1 18 1 24 1 5 -9 1 -22 -10 -13 -11 -17 -13 -10 -5
19 22 15 43 -8 37 -15 -4 -20 0 -20 13 0 11 -4 21 -9 24 -5 4 -7 -4 -3 -16 l5
-22 -23 22 c-13 12 -28 22 -32 22 -5 0 -7 4 -4 8 3 5 -1 9 -9 9 -8 0 -12 -4
-9 -9 3 -4 0 -8 -5 -8 -6 0 -11 10 -11 23 0 18 -2 19 -11 7 -9 -12 -10 -10 -6
8 5 19 3 21 -9 11 -17 -14 -19 2 -1 20 10 10 7 10 -16 0 -23 -11 -30 -10 -37
1 -6 10 -9 9 -13 -6 -4 -15 -5 -15 -6 -3 0 9 -10 19 -21 22 -11 3 -20 9 -19
14 3 20 -2 34 -11 28 -6 -4 -7 -11 -4 -17 4 -7 2 -8 -4 -4 -6 4 -8 14 -5 24 4
11 0 9 -13 -6 l-19 -23 -22 25 c-15 17 -18 26 -10 30 7 2 4 5 -5 5 -10 1 -18
6 -18 11 0 6 -5 10 -11 10 -5 0 -8 -4 -5 -8 3 -5 -1 -9 -9 -9 -8 0 -12 4 -9 8
7 12 -19 17 -45 7 -13 -5 -26 -6 -29 -3 -3 3 0 5 6 5 7 0 12 5 12 10 0 6 -6
10 -12 9 -18 -3 -48 11 -48 22 0 14 24 6 32 -11 6 -11 7 -10 5 5 -2 20 -23 27
-42 15 -5 -4 -18 -10 -27 -13 -13 -5 -15 -2 -11 11 6 15 5 15 -10 3 -22 -17
-29 -10 -30 26 0 15 -2 22 -4 16 -3 -7 -9 -13 -14 -13 -6 0 -8 4 -5 9 3 5 -1
12 -10 15 -8 3 -12 2 -9 -4 3 -6 1 -10 -4 -10 -6 0 -11 4 -11 9 0 14 -29 21
-36 9 -4 -6 -3 -8 4 -4 6 3 13 2 16 -3 4 -5 2 -12 -3 -15 -5 -4 -12 -2 -16 3
-3 6 -11 9 -18 7 -7 -1 -9 -1 -4 1 4 3 7 9 7 14 0 6 -4 7 -10 4 -18 -11 -51
-14 -45 -4 4 5 10 7 15 4 5 -3 11 -2 14 3 2 4 -4 14 -16 21 -11 7 -17 8 -14 3
7 -12 -13 -10 -32 1 -7 5 -9 13 -6 19 4 5 -5 2 -20 -7 -23 -16 -27 -16 -41 -1
-20 20 -26 20 -19 1 8 -20 -6 -19 -23 3 -8 9 -11 11 -7 3 5 -9 3 -12 -5 -7 -7
4 -9 17 -6 29 6 21 5 21 -9 3 -14 -18 -15 -17 -22 8 -3 14 -10 23 -15 20 -5
-3 -6 -10 -3 -16 4 -7 0 -7 -13 0 -11 6 -25 7 -33 2 -17 -11 -42 -1 -33 14 3
6 -3 2 -15 -8 -12 -11 -25 -16 -29 -13 -3 4 -1 7 5 7 7 0 12 3 12 8 0 4 -13 7
-29 7 -16 1 -28 -2 -26 -5 2 -4 -6 -6 -18 -5 -13 1 -23 9 -24 21 -3 18 -2 18
5 1 7 -17 9 -17 21 -3 7 9 12 16 10 17 -32 6 -41 5 -49 -9 -9 -14 -10 -14 -5
4 6 23 -19 29 -44 10 -12 -9 -14 -8 -9 4 4 11 0 16 -13 16 -13 0 -18 -5 -14
-15 4 -11 3 -11 -9 -2 -10 9 -16 9 -21 1 -5 -8 -14 -6 -28 7 -11 10 -17 12
-13 6 9 -15 9 -15 -32 -4 -18 6 -30 6 -27 1 3 -4 -2 -11 -11 -14 -24 -9 -31
-7 -14 5 11 8 6 9 -23 5 -25 -3 -35 -1 -31 6 4 6 -2 8 -17 3 -13 -3 -19 -3
-14 2 6 4 11 16 13 25 2 15 -26 17 -348 18 -247 0 -350 -3 -350 -10z m-76 -48
c3 -5 -1 -9 -9 -9 -8 0 -12 4 -9 9 3 4 7 8 9 8 2 0 6 -4 9 -8z m-364 -51 c0
-6 -4 -12 -8 -15 -5 -3 -9 1 -9 9 0 8 4 15 9 15 4 0 8 -4 8 -9z m-282 -75
c-15 -30 -16 -30 -14 -3 0 13 6 24 13 24 9 0 9 -6 1 -21z m-114 -38 c-3 -4 -9
-8 -15 -8 -5 0 -9 4 -9 8 0 5 7 9 15 9 8 0 12 -4 9 -9z m-189 -78 c3 -5 1 -10
-4 -10 -6 0 -11 5 -11 10 0 6 2 10 4 10 3 0 8 -4 11 -10z m-310 -130 c-3 -5
-12 -10 -18 -10 -7 0 -6 4 3 10 19 12 23 12 15 0z m4011 -477 c-3 -3 -12 2
-21 11 -9 9 -20 14 -24 12 -4 -3 -8 1 -8 9 0 11 8 9 29 -7 16 -11 27 -22 24
-25z m-4621 27 c3 -5 1 -10 -4 -10 -6 0 -11 5 -11 10 0 6 2 10 4 10 3 0 8 -4
11 -10z m-509 -532 c4 -7 3 -8 -4 -4 -16 10 -15 -7 1 -23 10 -11 8 -11 -10 0
-16 10 -19 16 -11 26 13 16 15 16 24 1z m5760 -200 c4 -7 4 -10 -1 -6 -4 4
-15 2 -24 -5 -14 -11 -14 -10 -2 6 16 20 18 21 27 5z m-6129 -431 c0 -8 -6
-14 -14 -14 -9 0 -10 4 -2 14 6 7 12 13 14 13 1 0 2 -6 2 -13z m6358 -36 c3
-5 2 -12 -3 -15 -5 -3 -9 1 -9 9 0 17 3 19 12 6z m-6405 -80 c0 -6 -4 -12 -8
-15 -5 -3 -9 1 -9 9 0 8 4 15 9 15 4 0 8 -4 8 -9z m-116 -369 c3 -5 -1 -9 -9
-9 -8 0 -12 4 -9 9 3 4 7 8 9 8 2 0 6 -4 9 -8z m-45 -135 c8 -10 7 -14 -2 -14
-8 0 -14 6 -14 14 0 7 1 13 2 13 2 0 8 -6 14 -13z m6829 -142 c-3 -3 -9 2 -12
12 -6 14 -5 15 5 6 7 -7 10 -15 7 -18z m-6818 -1651 c0 -8 -19 -13 -24 -6 -3
5 1 9 9 9 8 0 15 -2 15 -3z m110 -348 c0 -12 -5 -7 -19 24 -11 24 -11 24 3 6
9 -11 16 -24 16 -30z m6445 -185 c3 -5 2 -12 -3 -15 -5 -3 -9 1 -9 9 0 17 3
19 12 6z m-55 -126 c0 -12 -19 -12 -23 0 -4 9 -1 12 9 8 7 -3 14 -7 14 -8z
m-85 -105 c-3 -5 -1 -10 5 -10 6 0 8 -5 4 -11 -4 -8 -9 -7 -15 2 -7 12 -3 29
7 29 3 0 2 -4 -1 -10z m-6022 -110 c3 -11 1 -18 -4 -14 -5 3 -9 12 -9 20 0 20
7 17 13 -6z m5857 -156 c0 -8 -19 -13 -24 -6 -3 5 1 9 9 9 8 0 15 -2 15 -3z
m-5737 -19 c4 -8 1 -17 -6 -21 -7 -4 -9 -4 -5 1 4 4 3 14 -3 22 -7 8 -8 13 -1
13 5 0 12 -7 15 -15z m162 -213 c-3 -3 -11 0 -18 7 -9 10 -8 11 6 5 10 -3 15
-9 12 -12z m20 -22 c8 -13 -5 -13 -25 0 -13 8 -13 10 2 10 9 0 20 -4 23 -10z
m190 -230 c-3 -5 -12 -10 -18 -10 -7 0 -6 4 3 10 19 12 23 12 15 0z m83 -85
c-3 -3 -9 2 -12 12 -6 14 -5 15 5 6 7 -7 10 -15 7 -18z m4572 -199 c0 -3 -4
-8 -10 -11 -5 -3 -10 -1 -10 4 0 6 5 11 10 11 6 0 10 -2 10 -4z m-196 -132 c3
-8 2 -12 -4 -9 -6 3 -10 10 -10 16 0 14 7 11 14 -7z m-3724 -130 c0 -8 -19
-13 -24 -6 -3 5 1 9 9 9 8 0 15 -2 15 -3z m3180 -158 c0 -3 -4 -8 -10 -11 -5
-3 -10 -1 -10 4 0 6 5 11 10 11 6 0 10 -2 10 -4z m-123 -51 c0 -8 -4 -12 -9
-9 -5 3 -6 10 -3 15 9 13 12 11 12 -6z m-2541 -58 c3 -3 -6 -4 -20 -3 -15 2
-29 6 -32 9 -4 3 6 5 20 3 14 -1 29 -5 32 -9z m2444 5 c0 -5 -7 -9 -15 -9 -8
0 -12 4 -9 9 3 4 9 8 15 8 5 0 9 -4 9 -8z m-80 -43 c-7 -11 -14 -18 -17 -15
-3 3 0 12 7 21 18 21 23 19 10 -6z m-300 -65 c0 -8 -19 -13 -24 -6 -3 5 1 9 9
9 8 0 15 -2 15 -3z m-1530 -50 c0 -8 -19 -13 -24 -6 -3 5 1 9 9 9 8 0 15 -2
15 -3z"/>
<path d="M2806 6948 c3 -5 10 -6 15 -3 13 9 11 12 -6 12 -8 0 -12 -4 -9 -9z"/>
<path d="M4405 6899 c-4 -6 -5 -12 -2 -15 2 -3 7 2 10 11 7 17 1 20 -8 4z"/>
<path d="M2507 6849 c7 -7 15 -10 18 -7 3 3 -2 9 -12 12 -14 6 -15 5 -6 -5z"/>
<path d="M4561 6844 c0 -11 3 -14 6 -6 3 7 2 16 -1 19 -3 4 -6 -2 -5 -13z"/>
<path d="M1910 6635 c-14 -8 -20 -14 -14 -15 5 0 19 7 30 15 24 18 16 19 -16
0z"/>
<path d="M5021 6643 c-1 -17 16 -25 25 -12 4 7 3 9 -4 5 -5 -3 -13 0 -15 6 -4
9 -6 10 -6 1z"/>
<path d="M5106 6613 c-6 -14 -5 -15 5 -6 7 7 10 15 7 18 -3 3 -9 -2 -12 -12z"/>
<path d="M1720 6526 c0 -8 4 -17 9 -20 5 -4 7 3 4 14 -6 23 -13 26 -13 6z"/>
<path d="M1690 6520 c0 -5 5 -10 11 -10 5 0 7 5 4 10 -3 6 -8 10 -11 10 -2 0
-4 -4 -4 -10z"/>
<path d="M5285 6521 c-3 -5 -2 -12 3 -15 5 -3 9 1 9 9 0 17 -3 19 -12 6z"/>
<path d="M1144 6082 c3 -5 0 -12 -6 -15 -7 -2 -10 -7 -7 -11 3 -4 12 0 18 8 9
11 9 16 0 22 -7 4 -9 3 -5 -4z"/>
<path d="M1095 6061 c-3 -5 -2 -12 3 -15 5 -3 9 1 9 9 0 17 -3 19 -12 6z"/>
<path d="M1027 5999 c7 -7 15 -10 18 -7 3 3 -2 9 -12 12 -14 6 -15 5 -6 -5z"/>
<path d="M943 5933 c-15 -5 -17 -23 -4 -23 5 0 11 7 15 15 3 8 4 15 3 14 -1 0
-8 -3 -14 -6z"/>
<path d="M6155 5781 c-3 -5 -2 -12 3 -15 5 -3 9 1 9 9 0 17 -3 19 -12 6z"/>
<path d="M724 5672 c4 -7 2 -21 -5 -30 -12 -15 -11 -15 6 0 16 15 17 20 6 30
-11 11 -13 10 -7 0z"/>
<path d="M635 5549 c-10 -15 3 -25 16 -12 7 7 7 13 1 17 -6 3 -14 1 -17 -5z"/>
<path d="M620 5489 c0 -5 5 -7 10 -4 6 3 10 8 10 11 0 2 -4 4 -10 4 -5 0 -10
-5 -10 -11z"/>
<path d="M540 5401 c0 -6 4 -13 10 -16 6 -3 7 1 4 9 -7 18 -14 21 -14 7z"/>
<path d="M510 5361 c0 -6 4 -13 10 -16 6 -3 7 1 4 9 -7 18 -14 21 -14 7z"/>
<path d="M6460 5366 c0 -2 7 -9 15 -16 13 -11 14 -10 9 4 -5 14 -24 23 -24 12z"/>
<path d="M6540 5222 c9 -19 30 -23 30 -5 0 4 -3 3 -7 0 -3 -4 -12 1 -20 11
-13 15 -13 15 -3 -6z"/>
<path d="M50 4275 c0 -8 4 -15 10 -15 5 0 7 7 4 15 -4 8 -8 15 -10 15 -2 0 -4
-7 -4 -15z"/>
<path d="M220 2166 c0 -2 7 -6 15 -10 8 -3 15 -1 15 4 0 6 -7 10 -15 10 -8 0
-15 -2 -15 -4z"/>
<path d="M263 2093 c-7 -2 -13 -10 -13 -16 0 -8 4 -7 12 1 17 17 33 15 19 -2
-10 -12 -8 -14 11 -9 18 4 20 3 8 -6 -8 -6 -10 -11 -4 -11 21 0 24 14 7 32
-17 19 -20 20 -40 11z"/>
<path d="M685 1371 c-3 -5 -2 -12 3 -15 5 -3 9 1 9 9 0 17 -3 19 -12 6z"/>
<path d="M6105 1160 c-3 -5 -1 -10 4 -10 6 0 11 5 11 10 0 6 -2 10 -4 10 -3 0
-8 -4 -11 -10z"/>
<path d="M5610 679 c0 -5 5 -7 10 -4 6 3 10 8 10 11 0 2 -4 4 -10 4 -5 0 -10
-5 -10 -11z"/>
<path d="M5495 629 c-3 -4 2 -6 10 -5 21 3 28 13 10 13 -9 0 -18 -4 -20 -8z"/>
<path d="M5070 359 c0 -5 5 -7 10 -4 6 3 10 8 10 11 0 2 -4 4 -10 4 -5 0 -10
-5 -10 -11z"/>
<path d="M1956 327 c3 -10 9 -15 12 -12 3 3 0 11 -7 18 -10 9 -11 8 -5 -6z"/>
<path d="M1986 322 c-3 -5 1 -9 9 -9 8 0 12 4 9 9 -3 4 -7 8 -9 8 -2 0 -6 -4
-9 -8z"/>
<path d="M2520 120 c0 -5 5 -10 11 -10 5 0 7 5 4 10 -3 6 -8 10 -11 10 -2 0
-4 -4 -4 -10z"/>
</g>
</svg>
