<?xml version="1.0" encoding="UTF-8" standalone="no"?>
<svg
   width="32.848293pt"
   height="41.690742pt"
   viewBox="0 0 125.60562 159.29597"
   version="1.1"
   id="svg65"
   sodipodi:docname="princeton_seal.svg"
   inkscape:version="1.2 (1:1.2.1+202207142221+cd75a1ee6d)"
   xmlns:inkscape="http://www.inkscape.org/namespaces/inkscape"
   xmlns:sodipodi="http://sodipodi.sourceforge.net/DTD/sodipodi-0.dtd"
   xmlns="http://www.w3.org/2000/svg"
   xmlns:svg="http://www.w3.org/2000/svg">
  <defs
     id="defs69" />
  <sodipodi:namedview
     id="namedview67"
     pagecolor="#ffffff"
     bordercolor="#000000"
     borderopacity="0.25"
     inkscape:showpageshadow="2"
     inkscape:pageopacity="0.0"
     inkscape:pagecheckerboard="0"
     inkscape:deskcolor="#d1d1d1"
     inkscape:document-units="pt"
     showgrid="false"
     inkscape:zoom="12.712091"
     inkscape:cx="57.858301"
     inkscape:cy="33.472069"
     inkscape:window-width="2560"
     inkscape:window-height="1383"
     inkscape:window-x="0"
     inkscape:window-y="27"
     inkscape:window-maximized="1"
     inkscape:current-layer="svg65" />
  <g
     id="g385"
     transform="matrix(0.15642044,0,0,0.15642044,0,-0.77528506)">
    <g
       id="O00000ff">
      <path
         fill="#000000"
         opacity="1"
         d="m 401.27,2.46 c 5.04,7.07 9.37,14.67 14.64,21.61 30.06,41.82 69.94,76.45 115.32,100.75 38.93,20.9 81.89,34.22 125.8,39.12 47.7,5.42 96.45,0.95 142.43,-12.81 2.43,28.63 3.52,57.36 3.54,86.09 v 0.57 c -0.52,65.27 -7.47,130.48 -20.96,194.34 -240.34,-0.01 -480.68,0 -721.02,0 -13.29,-0.23 -26.63,0.45 -39.89,-0.35 -0.09,0.45 -0.27,1.37 -0.35,1.83 -0.2,-0.12 -0.59,-0.36 -0.78,-0.48 0.7,-1.74 -0.03,-3.51 -0.31,-5.24 C 7.37,368.65 0.94,308.22 0,247.73 v -27.5 c 0.55,-23.04 1.64,-46.07 3.65,-69.04 7.1,1.87 14.14,3.98 21.3,5.6 66.28,15.63 137.11,11.73 201.13,-11.56 C 298.32,119.22 361.6,68.32 401.27,2.46 m -66.83,183.16 c -12.95,2.76 -26.13,4.81 -39.41,4.62 -14.07,-0.17 -28.45,-1.4 -41.62,-6.71 -0.01,56.81 -0.01,113.62 0,170.43 7.55,3.63 15.9,5.18 24.16,6.21 14.77,1.55 29.79,1.35 44.43,-1.36 16.28,-2.65 32.31,-7.71 48.96,-7.36 9.91,0.08 20.18,2.62 27.9,9.11 -0.04,-56.12 -0.01,-112.24 -0.02,-168.36 -5.3,-7.2 -14.29,-10.55 -22.93,-11.38 -14,-1.28 -27.84,2 -41.47,4.8 m 69.79,6.61 c 0,55.99 -0.01,111.97 0.01,167.96 5.66,-3.77 11.86,-6.93 18.68,-7.9 19.45,-3.17 38.55,3.24 57.54,6.4 14.82,2.8 30.04,3.06 45.02,1.49 8.3,-1.04 16.72,-2.56 24.3,-6.25 -0.08,-56.83 0.13,-113.66 -0.1,-170.48 -16.35,6.57 -34.41,7.18 -51.8,6.46 -21.93,-0.96 -42.85,-9.31 -64.85,-9.44 -10.53,-0.07 -22.25,2.86 -28.8,11.76 m -166.32,13.46 c 0.07,56.67 -0.18,113.35 0.12,170.02 25.18,3.26 50.6,5.58 76.01,4.35 22.64,-1.16 45.12,-4.19 67.75,-5.45 -0.1,3.57 0.06,7.14 -0.13,10.7 12.46,5.38 27.03,4.91 39.59,0.08 -0.09,-3.62 0.03,-7.25 -0.2,-10.86 10.99,0.87 21.98,1.73 32.97,2.64 9.97,1.05 19.94,2.12 29.96,2.61 27.05,1.78 54.17,-0.56 80.98,-4.1 0.15,-56.64 -0.02,-113.28 0.09,-169.92 -3.26,-1.02 -6.57,-1.81 -9.86,-2.71 0,51.28 0.03,102.56 -0.01,153.84 -6.72,4.15 -14.53,5.99 -22.2,7.46 -16.49,2.67 -33.43,2.69 -49.92,0.06 -17.32,-2.63 -34.33,-8.24 -52.02,-7.76 -9.9,0.24 -20.55,3.45 -26.77,11.64 -1.83,-0.02 -3.65,-0.03 -5.47,-0.03 -6.18,-8.27 -16.93,-11.37 -26.83,-11.61 -18.33,-0.44 -35.91,5.55 -53.9,8.08 -15.78,2.28 -31.94,2.19 -47.68,-0.35 -7.72,-1.48 -15.6,-3.29 -22.35,-7.48 -0.04,-51.31 0.01,-102.61 -0.01,-153.91 -3.38,0.89 -6.75,1.8 -10.12,2.7 m 332.5,26.68 c 0.04,9.33 -0.11,18.66 0.08,27.99 4.89,-0.07 9.78,-0.01 14.67,-0.04 0.04,-9.28 -0.07,-18.56 0.06,-27.83 -4.93,-0.29 -9.88,-0.06 -14.81,-0.12 m -352.63,0 c -0.01,9.32 -0.01,18.63 0,27.95 4.91,0.01 9.82,0.01 14.73,0 0.02,-9.32 0.01,-18.63 0.01,-27.95 -4.92,-0.01 -9.83,-0.01 -14.74,0 m 0,82.72 c -0.01,9.31 -0.01,18.63 0,27.95 4.86,0.04 9.72,-0.07 14.59,0.07 0.4,-9.3 -0.03,-18.62 0.21,-27.93 -4.93,-0.21 -9.87,-0.05 -14.8,-0.09 m 352.6,0.04 c 0.04,9.27 0.06,18.55 -0.01,27.82 4.93,0.2 9.86,0.05 14.79,0.09 0.01,-9.32 0.01,-18.64 0,-27.95 -4.93,0.01 -9.86,-0.06 -14.78,0.04 z"
         id="path2" />
      <path
         fill="#000000"
         opacity="1"
         d="m 479.57,213.62 c 7.24,-1.67 15.31,3.01 17.26,10.22 2.17,7.08 -1.84,15.35 -8.78,17.96 -6.57,2.89 -15.11,-0.01 -18.46,-6.38 -2.15,-4.33 -2.19,-9.63 -0.18,-14.02 1.93,-3.99 5.9,-6.79 10.16,-7.78 m 0.81,1.83 c -5.53,2.3 -6.39,9.35 -6.03,14.61 0.18,4.59 2.4,10.61 7.71,11.02 4.43,0.49 7.6,-3.64 8.24,-7.62 0.81,-4.95 0.96,-10.57 -1.87,-14.94 -1.62,-2.7 -5.05,-3.97 -8.05,-3.07 z"
         id="path4" />
      <path
         fill="#000000"
         opacity="1"
         d="m 272.09,214.33 c 5.37,-0.26 10.76,-0.07 16.14,-0.16 0,2.94 -5.39,0.33 -4.64,3.83 2.1,5.64 4.68,11.1 7.06,16.62 0.21,0.1 0.62,0.3 0.83,0.4 1.92,-5.43 5.17,-10.39 6.46,-16.01 0.7,-2.57 -2.2,-3.09 -3.96,-3.55 -0.97,-0.31 -0.12,-1.88 0.83,-1.32 3.73,0.12 7.47,0.03 11.2,0.06 1.3,0.33 -0.01,1.77 -0.81,1.54 -1.85,0.4 -3.6,1.47 -4.32,3.29 -3.78,7.92 -7.32,15.96 -11.12,23.87 -0.36,-0.04 -1.08,-0.13 -1.44,-0.17 -3.24,-7.66 -6.59,-15.28 -10.18,-22.78 -0.78,-1.43 -1.54,-3.22 -3.24,-3.74 -1,-0.56 -2.83,-0.32 -2.81,-1.88 z"
         id="path6" />
      <path
         fill="#000000"
         opacity="1"
         d="m 309.35,213.95 c 8.83,0.05 17.67,0.06 26.51,0.29 0.17,2.37 0.32,4.75 0.42,7.13 -2.01,0.68 -2.39,-1.96 -3.62,-2.92 -2.91,-3.91 -8.21,-2.51 -12.36,-2.64 -0.21,3.48 -0.24,6.97 -0.2,10.45 3.56,0.44 7.59,-0.93 8.26,-4.86 0.32,-0.04 0.97,-0.11 1.3,-0.15 -0.21,4.11 -0.14,8.21 -0.13,12.32 -2.08,0.27 -1.68,-2.32 -2.46,-3.55 -1.51,-2.3 -4.63,-2.12 -7.04,-2.06 0.48,3.87 -1.14,8.44 1.16,11.84 2.69,1.17 5.88,0.53 8.77,0.61 3.74,0.03 5.38,-3.92 7.16,-6.57 0.38,0.1 1.14,0.29 1.52,0.39 0.07,2.55 -0.07,5.1 0.06,7.65 -1.82,0.59 -3.74,0.36 -5.61,0.37 -8.09,-0.16 -16.18,-0.27 -24.27,-0.15 0.02,-3.01 4.38,-0.64 5.08,-3.06 1.16,-6.93 0.51,-14.03 0.44,-21.03 0.22,-3.46 -5.28,-1.03 -4.99,-4.06 z"
         id="path8" />
      <path
         fill="#000000"
         opacity="1"
         d="m 343.35,214.25 c 9.86,-0.01 19.72,-0.02 29.58,-0.12 0.17,2.97 0.16,5.95 0,8.93 -2.22,0.14 -2.18,-2.47 -3.27,-3.77 -1.71,-3.04 -5.49,-3.53 -8.63,-3.39 0,7.37 -0.24,14.74 0.1,22.1 0.12,3.26 4.91,1.21 5.47,4.07 -5.61,0.07 -11.23,-0.11 -16.84,0.12 -0.51,-2.31 2.19,-1.36 3.4,-1.99 1.7,-0.08 2.35,-1.71 2.18,-3.2 0.07,-7.04 0.25,-14.08 -0.1,-21.11 -3.07,-0.2 -6.5,0.29 -8.29,3.11 -1.21,1.07 -1.54,3.78 -3.47,3.54 -0.42,-2.75 -0.14,-5.53 -0.13,-8.29 z"
         id="path10" />
      <path
         fill="#000000"
         opacity="1"
         d="m 426.56,213.96 c 3.05,0.08 6.11,-0.05 9.14,0.35 6.49,6.67 13.09,13.3 19.12,20.41 0.03,-5.62 0.65,-11.39 -0.52,-16.92 -0.54,-3.01 -5.46,-0.66 -5.48,-3.87 4.73,0.41 9.5,-0.11 14.21,0.42 -1.23,2.14 -5.28,1.39 -5.62,4.63 -0.83,7.78 -0.41,15.71 -0.2,23.55 -1.71,1.2 -2.69,-1.19 -3.83,-2 -6.23,-6.5 -12.43,-13.04 -18.74,-19.47 0.65,5.76 -0.46,11.74 1.05,17.36 0.82,2.51 5,1.07 5.11,3.69 -4.52,-0.07 -9.03,0.01 -13.54,-0.04 0.48,-2.01 2.98,-1.44 4.3,-2.54 1.55,-0.98 1.05,-3.07 1.24,-4.6 -0.05,-4.68 0.15,-9.37 -0.19,-14.04 -0.08,-2.9 -2.82,-4.69 -5.3,-5.51 -0.19,-0.36 -0.56,-1.07 -0.75,-1.42 z"
         id="path12" />
      <path
         fill="#000000"
         opacity="1"
         d="m 500.43,215.29 c 0.11,-0.29 0.32,-0.89 0.43,-1.19 5.07,0.31 10.15,-0.05 15.22,0.1 0.11,0.29 0.34,0.86 0.45,1.15 -1.68,0.48 -4.92,-0.05 -4.72,2.56 2.36,5.95 4.8,11.94 7.71,17.65 1.94,-5.96 6.02,-11.32 6.7,-17.6 -0.02,-2.82 -4.55,-1.05 -4.41,-3.81 4.36,0.11 8.72,-0.03 13.09,0.12 0.05,1.6 -1.75,1.39 -2.75,1.91 -1.39,0.4 -2.41,1.58 -3,2.85 -3.8,7.94 -7.32,16.02 -11.18,23.94 -0.36,-0.11 -1.1,-0.33 -1.46,-0.44 -3.53,-8.1 -6.9,-16.3 -10.97,-24.15 -0.92,-2.05 -3.2,-2.49 -5.11,-3.09 z"
         id="path14" />
      <path
         fill="#000000"
         opacity="1"
         d="m 276.19,258.35 c 9.82,0.29 19.64,-0.03 29.46,0.03 0.01,2.8 0.13,5.61 0.01,8.41 -1.67,1.57 -2.16,-1.57 -2.91,-2.52 -1.51,-3.53 -5.6,-4.32 -9.03,-4.19 0.06,7.63 -0.46,15.31 0.26,22.9 0.77,2.54 5.35,0.44 5.09,3.39 -5.49,-0.09 -10.98,-0.13 -16.48,0.03 l -0.03,-1.38 c 1.82,-0.46 5.45,-0.14 5.39,-2.9 0.18,-7.34 0.3,-14.7 -0.06,-22.03 -2.65,0.05 -5.68,0.01 -7.52,2.27 -1.63,1.31 -1.95,4.01 -4.1,4.64 -0.54,-2.85 -0.44,-5.79 -0.08,-8.65 z"
         id="path16" />
      <path
         fill="#000000"
         opacity="1"
         d="m 310.96,259.53 c -0.83,-0.26 -0.15,-1.94 0.81,-1.31 8.32,0 16.66,0.02 24.98,0.25 1.16,2.09 0.44,4.96 0.71,7.34 -2.06,0.05 -2.47,-2.38 -3.81,-3.46 -3.02,-3.5 -8.14,-2.28 -12.18,-2.11 -0.02,3.43 -0.15,6.85 -0.08,10.28 2.41,-0.09 5.24,-0.03 6.99,-2.02 0.66,-0.92 0.85,-4.17 2.58,-2.61 -0.33,4 -0.03,8.02 -0.26,12.02 -2.22,0.12 -1.41,-2.75 -2.55,-3.94 -1.63,-2.02 -4.51,-1.84 -6.85,-1.77 0.59,3.94 -1.44,9 1.58,12.16 4.28,0.24 10.18,1.88 13.01,-2.42 1.43,-1.26 1.59,-4.17 3.94,-3.97 -0.11,2.77 0.62,5.85 -0.31,8.43 -9.77,0.21 -19.55,-0.31 -29.33,-0.06 -0.44,-3.1 4.57,-0.49 5.03,-3.21 1.09,-6.98 0.5,-14.13 0.37,-21.16 -0.33,-2.23 -3.05,-1.84 -4.63,-2.44 z"
         id="path18" />
      <path
         fill="#000000"
         opacity="1"
         d="m 351.17,259.14 c 3.75,-2.38 8.85,-2.04 12.57,0.24 0.53,-0.97 3.35,-2.55 3.05,-0.3 -0.31,2.61 -0.21,5.25 0.13,7.86 -2.34,0.64 -2.35,-2.22 -3.33,-3.58 -1.75,-4.38 -8.87,-5.23 -11.42,-1.25 -1.53,2.77 1.21,5.4 3.75,6.03 3.72,1.55 8.04,2.06 11.12,4.84 3.57,3.4 2.62,9.94 -1.63,12.35 -4.34,2.96 -9.81,1.74 -14.31,-0.13 -1.17,0.78 -2.42,1.08 -3.75,0.89 0.45,-3.12 0.14,-6.27 0.43,-9.39 2.33,0 2.38,2.67 3.41,4.16 2,4.4 8.84,6.05 12.4,2.67 2.14,-1.93 1.36,-5.69 -1.16,-6.91 -3.8,-2.02 -8.45,-2.25 -11.85,-5.07 -3.94,-2.96 -3.61,-9.83 0.59,-12.41 z"
         id="path20" />
      <path
         fill="#000000"
         opacity="1"
         d="m 424.14,258.36 c 9.83,0.27 19.67,-0.05 29.5,0.03 0.02,2.83 0.12,5.66 0.01,8.49 -0.36,0.06 -1.07,0.2 -1.42,0.27 -1.11,-1.94 -1.85,-4.25 -3.74,-5.59 -1.95,-1.46 -4.51,-1.31 -6.81,-1.48 0.08,7.62 -0.42,15.28 0.25,22.86 0.76,2.57 5.26,0.49 5.16,3.42 -5.51,-0.06 -11.01,-0.13 -16.51,0.05 l -0.08,-1.39 c 1.83,-0.47 5.47,-0.12 5.43,-2.9 0.18,-7.34 0.28,-14.69 -0.06,-22.02 -2.64,0.05 -5.67,-0.01 -7.51,2.25 -1.64,1.32 -1.95,3.98 -4.08,4.66 -0.61,-2.84 -0.42,-5.78 -0.14,-8.65 z"
         id="path22" />
      <path
         fill="#000000"
         opacity="1"
         d="m 469.55,259.61 c 0.42,-1.3 1.9,-2.86 3.17,-1.37 3.96,8.16 6.72,16.89 11.05,24.87 0.7,2.23 4.77,0.89 4.44,3.42 -5.11,-0.17 -10.22,-0.17 -15.33,-0.07 -0.31,-2.48 3.2,-0.8 4.14,-2.48 0.15,-2.77 -1.49,-5.22 -2.3,-7.79 -3.46,-0.34 -6.95,-0.24 -10.41,-0.05 -0.88,2.46 -2.1,4.9 -2.03,7.58 1.18,1.57 4.64,0.22 4.38,2.73 -4.18,-0.12 -8.36,-0.09 -12.53,-0.03 -0.1,-2.37 3.33,-1.35 4.23,-3.14 4.6,-7.45 6.93,-16.03 11.19,-23.67 m -4.36,14.54 c 2.85,-0.02 5.7,-0.03 8.56,-0.02 -1.36,-3.28 -2.77,-6.53 -4.07,-9.83 -1.92,3.06 -3.25,6.47 -4.49,9.85 z"
         id="path24" />
      <path
         fill="#000000"
         opacity="1"
         d="m 490.66,258.47 c 4.25,-0.21 8.52,-0.02 12.79,-0.04 3.08,6.5 6.01,13.07 8.99,19.62 2.99,-6.54 5.87,-13.15 9.38,-19.44 3.86,-0.21 7.79,-0.52 11.64,-0.02 -0.08,0.26 -0.24,0.76 -0.31,1.02 -1.98,0.34 -4.81,0.85 -4.83,3.43 -0.14,6.29 -0.4,12.63 0.19,18.9 0.15,2.52 2.66,3.25 4.8,3.21 l -0.04,1.32 c -5.1,-0.06 -10.19,-0.07 -15.28,-0.09 l -0.07,-1.33 c 1.73,-0.22 4.4,-0.07 4.66,-2.42 0.34,-7.23 0.05,-14.49 0.15,-21.73 -4.16,8.26 -7.69,16.93 -11.9,25.1 -4.76,-8.01 -7.8,-17.02 -12.46,-25.09 0.01,6.54 -0.07,13.1 0.27,19.63 0.19,2.86 2.9,4.6 5.57,4.65 l -0.05,1.24 c -4.48,0 -8.97,-0.2 -13.45,-0.03 -0.14,-2.84 5.09,-1.18 5.19,-4.35 0.66,-6.34 0.38,-12.78 0.19,-19.14 -0.06,-2.76 -3.25,-2.81 -5.23,-3.12 -0.05,-0.33 -0.15,-0.99 -0.2,-1.32 z"
         id="path26" />
      <path
         fill="#000000"
         opacity="1"
         d="m 288.97,302.49 c 8.76,-0.03 17.53,0.11 26.29,0.2 0.39,2.39 0.4,4.81 0.52,7.23 -2.02,0.48 -2.46,-1.96 -3.67,-3.03 -2.99,-3.72 -8.3,-2.71 -12.44,-2.29 0.03,3.39 -0.12,6.78 -0.09,10.17 3.24,0.23 7.62,-0.53 7.98,-4.5 0.4,-0.15 1.21,-0.44 1.62,-0.59 -0.2,4.13 -0.21,8.27 -0.07,12.41 -2.47,0.36 -1.62,-2.45 -2.64,-3.74 -1.6,-2.09 -4.57,-1.99 -6.93,-1.86 0.6,3.95 -1.51,9.2 1.72,12.22 4.29,0.09 10.14,1.8 12.93,-2.57 1.42,-1.11 1.63,-4.83 4.03,-3.48 -0.15,2.69 0.13,5.42 -0.3,8.1 -9.83,0.04 -19.65,-0.34 -29.47,-0.15 -0.46,-3.01 5.06,-0.49 5.11,-3.62 0.86,-6.62 0.38,-13.34 0.33,-20 0.23,-2.8 -3.05,-2.83 -4.97,-3.14 z"
         id="path28" />
      <path
         fill="#000000"
         opacity="1"
         d="m 323.34,302.49 c 3.09,0.33 6.56,-0.52 9.42,0.73 6.39,6.52 12.59,13.23 18.87,19.86 -0.4,-5.68 0.71,-11.57 -0.83,-17.1 -0.71,-2.57 -5.63,-0.47 -5.22,-3.54 4.54,0.26 9.09,0.24 13.64,0.15 l 0.13,1.19 c -2.82,0.17 -5.59,2.21 -5.59,5.23 -0.2,7.12 -0.27,14.25 0.06,21.37 -0.02,1.05 -1.15,1.4 -1.8,0.64 -7.04,-6.99 -13.66,-14.39 -20.74,-21.33 0.51,5.39 -0.13,10.86 0.7,16.23 0.43,2.68 3.55,3.01 5.66,3.66 -0.16,0.26 -0.47,0.78 -0.63,1.04 -4.3,0.02 -8.61,-0.05 -12.91,0.05 -0.07,-2.62 4.32,-1.19 4.98,-3.67 0.73,-5.6 0.29,-11.32 0.23,-16.96 0.22,-3.39 -2.93,-5.37 -5.72,-6.3 z"
         id="path30" />
      <path
         fill="#000000"
         opacity="1"
         d="m 423.29,310.99 c 0.17,-2.79 -0.42,-5.67 0.37,-8.38 9.78,0.45 19.57,-0.09 29.35,0.13 -0.04,2.8 0.11,5.61 -0.08,8.41 l -1.13,0.62 c -1.17,-1.96 -1.95,-4.27 -3.75,-5.76 -1.99,-1.58 -4.66,-1.52 -7.05,-1.58 0.01,7.22 -0.16,14.45 0.06,21.67 -0.11,2.75 3.11,2.84 5.05,3.11 0.09,0.33 0.27,0.98 0.37,1.31 -5.46,0.23 -10.93,-0.07 -16.38,0.2 -0.99,-2.55 3.39,-1.45 4.82,-2.58 0.92,-7.84 0.41,-15.8 0.33,-23.68 -2.94,-0.17 -6.24,0.14 -8.08,2.76 -1.4,1.18 -1.63,4.12 -3.88,3.77 z"
         id="path32" />
      <path
         fill="#000000"
         opacity="1"
         d="m 454.71,302.67 c 5.15,0.17 10.3,0.01 15.44,-0.01 0.17,0.25 0.5,0.74 0.67,0.99 -1.62,0.33 -3.2,0.77 -4.77,1.29 0.03,0.55 0.09,1.65 0.12,2.2 2.28,5.7 4.91,11.26 7.25,16.94 1.82,-3.27 3.08,-6.81 4.67,-10.2 1.06,-2.51 2.59,-5.04 2.24,-7.87 -0.6,-2.35 -4.64,-0.66 -4.37,-3.36 4.13,0.06 8.27,0.17 12.4,-0.01 0.16,0.32 0.47,0.97 0.63,1.29 -2.2,0.4 -4.63,1.19 -5.58,3.43 -3.83,7.92 -7.33,16.01 -11.2,23.92 -0.85,0.59 -1.43,0.38 -1.73,-0.63 -3.09,-7.27 -6.29,-14.48 -9.66,-21.62 -0.77,-1.46 -1.42,-3.13 -2.87,-4.04 -1.06,-0.92 -3.82,-0.15 -3.24,-2.32 z"
         id="path34" />
      <path
         fill="#000000"
         opacity="1"
         d="m 491.29,302.63 c 4.27,0.1 8.55,0.1 12.82,0.13 2.5,5.4 4.97,10.82 7.42,16.26 0.57,1 0.73,2.46 1.91,2.99 2.6,-6.66 5.58,-13.21 9.3,-19.31 3.75,0.1 7.5,-0.14 11.26,-0.03 -0.02,2.49 -4.11,1 -4.75,3.45 -0.89,4.18 -0.24,8.54 -0.44,12.79 0.16,3.04 -0.45,6.41 1.06,9.2 0.82,1.87 4.45,0.08 4.16,2.61 -5.12,-0.12 -10.33,0.21 -15.38,-0.28 -0.09,-0.24 -0.27,-0.72 -0.36,-0.96 1.98,-0.28 5.03,-0.32 4.98,-3.07 0.2,-7.1 -0.02,-14.21 0.12,-21.31 -3.86,8.32 -8.07,16.49 -11.41,25.04 -0.31,-0.17 -0.95,-0.5 -1.27,-0.67 -3.95,-8.08 -7.46,-16.41 -11.68,-24.33 -0.09,6.66 -0.12,13.35 0.29,20 0.28,2.74 2.91,4.12 5.4,4.38 0.05,0.3 0.16,0.9 0.22,1.2 -4.58,-0.02 -9.14,-0.16 -13.71,-0.1 0.01,-2.8 5.01,-1.08 5.24,-4.12 0.65,-6.65 0.6,-13.47 0.06,-20.12 -0.44,-3.07 -5.62,-0.64 -5.24,-3.75 z"
         id="path36" />
      <path
         fill="#000000"
         opacity="1"
         d="m 236.46,603.47 c 54.89,-52.45 109.81,-104.86 164.63,-157.38 91.09,86.93 181.94,174.11 273.01,261.05 1.1,1.14 2.16,2.34 3.23,3.53 -25.86,45.34 -55,88.82 -87.61,129.58 -0.4,-0.31 -1.22,-0.93 -1.63,-1.24 -62.35,-60.2 -124.6,-120.52 -186.96,-180.71 -50.41,48.87 -100.9,97.67 -151.38,146.48 -12.18,11.63 -24.01,23.65 -36.43,35.03 -8.06,-9.71 -15.54,-19.88 -23.1,-29.97 -23.5,-32.08 -45.29,-65.43 -64.7,-100.14 36.79,-35.6 74,-70.78 110.94,-106.23 z"
         id="path38" />
    </g>
    <g
       id="ffffffff">
      <path
         fill="#ffffff"
         opacity="1"
         d="m 334.44,185.62 c 13.63,-2.8 27.47,-6.08 41.47,-4.8 8.64,0.83 17.63,4.18 22.93,11.38 0.01,56.12 -0.02,112.24 0.02,168.36 -7.72,-6.49 -17.99,-9.03 -27.9,-9.11 -16.65,-0.35 -32.68,4.71 -48.96,7.36 -14.64,2.71 -29.66,2.91 -44.43,1.36 -8.26,-1.03 -16.61,-2.58 -24.16,-6.21 -0.01,-56.81 -0.01,-113.62 0,-170.43 13.17,5.31 27.55,6.54 41.62,6.71 13.28,0.19 26.46,-1.86 39.41,-4.62 m -62.35,28.71 c -0.02,1.56 1.81,1.32 2.81,1.88 1.7,0.52 2.46,2.31 3.24,3.74 3.59,7.5 6.94,15.12 10.18,22.78 0.36,0.04 1.08,0.13 1.44,0.17 3.8,-7.91 7.34,-15.95 11.12,-23.87 0.72,-1.82 2.47,-2.89 4.32,-3.29 0.8,0.23 2.11,-1.21 0.81,-1.54 -3.73,-0.03 -7.47,0.06 -11.2,-0.06 -0.95,-0.56 -1.8,1.01 -0.83,1.32 1.76,0.46 4.66,0.98 3.96,3.55 -1.29,5.62 -4.54,10.58 -6.46,16.01 -0.21,-0.1 -0.62,-0.3 -0.83,-0.4 -2.38,-5.52 -4.96,-10.98 -7.06,-16.62 -0.75,-3.5 4.64,-0.89 4.64,-3.83 -5.38,0.09 -10.77,-0.1 -16.14,0.16 m 37.26,-0.38 c -0.29,3.03 5.21,0.6 4.99,4.06 0.07,7 0.72,14.1 -0.44,21.03 -0.7,2.42 -5.06,0.05 -5.08,3.06 8.09,-0.12 16.18,-0.01 24.27,0.15 1.87,-0.01 3.79,0.22 5.61,-0.37 -0.13,-2.55 0.01,-5.1 -0.06,-7.65 -0.38,-0.1 -1.14,-0.29 -1.52,-0.39 -1.78,2.65 -3.42,6.6 -7.16,6.57 -2.89,-0.08 -6.08,0.56 -8.77,-0.61 -2.3,-3.4 -0.68,-7.97 -1.16,-11.84 2.41,-0.06 5.53,-0.24 7.04,2.06 0.78,1.23 0.38,3.82 2.46,3.55 -0.01,-4.11 -0.08,-8.21 0.13,-12.32 -0.33,0.04 -0.98,0.11 -1.3,0.15 -0.67,3.93 -4.7,5.3 -8.26,4.86 -0.04,-3.48 -0.01,-6.97 0.2,-10.45 4.15,0.13 9.45,-1.27 12.36,2.64 1.23,0.96 1.61,3.6 3.62,2.92 -0.1,-2.38 -0.25,-4.76 -0.42,-7.13 -8.84,-0.23 -17.68,-0.24 -26.51,-0.29 m 34,0.3 c -0.01,2.76 -0.29,5.54 0.13,8.29 1.93,0.24 2.26,-2.47 3.47,-3.54 1.79,-2.82 5.22,-3.31 8.29,-3.11 0.35,7.03 0.17,14.07 0.1,21.11 0.17,1.49 -0.48,3.12 -2.18,3.2 -1.21,0.63 -3.91,-0.32 -3.4,1.99 5.61,-0.23 11.23,-0.05 16.84,-0.12 -0.56,-2.86 -5.35,-0.81 -5.47,-4.07 -0.34,-7.36 -0.1,-14.73 -0.1,-22.1 3.14,-0.14 6.92,0.35 8.63,3.39 1.09,1.3 1.05,3.91 3.27,3.77 0.16,-2.98 0.17,-5.96 0,-8.93 -9.86,0.1 -19.72,0.11 -29.58,0.12 m -67.16,44.1 c -0.36,2.86 -0.46,5.8 0.08,8.65 2.15,-0.63 2.47,-3.33 4.1,-4.64 1.84,-2.26 4.87,-2.22 7.52,-2.27 0.36,7.33 0.24,14.69 0.06,22.03 0.06,2.76 -3.57,2.44 -5.39,2.9 l 0.03,1.38 c 5.5,-0.16 10.99,-0.12 16.48,-0.03 0.26,-2.95 -4.32,-0.85 -5.09,-3.39 -0.72,-7.59 -0.2,-15.27 -0.26,-22.9 3.43,-0.13 7.52,0.66 9.03,4.19 0.75,0.95 1.24,4.09 2.91,2.52 0.12,-2.8 0,-5.61 -0.01,-8.41 -9.82,-0.06 -19.64,0.26 -29.46,-0.03 m 34.77,1.18 c 1.58,0.6 4.3,0.21 4.63,2.44 0.13,7.03 0.72,14.18 -0.37,21.16 -0.46,2.72 -5.47,0.11 -5.03,3.21 9.78,-0.25 19.56,0.27 29.33,0.06 0.93,-2.58 0.2,-5.66 0.31,-8.43 -2.35,-0.2 -2.51,2.71 -3.94,3.97 -2.83,4.3 -8.73,2.66 -13.01,2.42 -3.02,-3.16 -0.99,-8.22 -1.58,-12.16 2.34,-0.07 5.22,-0.25 6.85,1.77 1.14,1.19 0.33,4.06 2.55,3.94 0.23,-4 -0.07,-8.02 0.26,-12.02 -1.73,-1.56 -1.92,1.69 -2.58,2.61 -1.75,1.99 -4.58,1.93 -6.99,2.02 -0.07,-3.43 0.06,-6.85 0.08,-10.28 4.04,-0.17 9.16,-1.39 12.18,2.11 1.34,1.08 1.75,3.51 3.81,3.46 -0.27,-2.38 0.45,-5.25 -0.71,-7.34 -8.32,-0.23 -16.66,-0.25 -24.98,-0.25 -0.96,-0.63 -1.64,1.05 -0.81,1.31 m 40.21,-0.39 c -4.2,2.58 -4.53,9.45 -0.59,12.41 3.4,2.82 8.05,3.05 11.85,5.07 2.52,1.22 3.3,4.98 1.16,6.91 -3.56,3.38 -10.4,1.73 -12.4,-2.67 -1.03,-1.49 -1.08,-4.16 -3.41,-4.16 -0.29,3.12 0.02,6.27 -0.43,9.39 1.33,0.19 2.58,-0.11 3.75,-0.89 4.5,1.87 9.97,3.09 14.31,0.13 4.25,-2.41 5.2,-8.95 1.63,-12.35 -3.08,-2.78 -7.4,-3.29 -11.12,-4.84 -2.54,-0.63 -5.28,-3.26 -3.75,-6.03 2.55,-3.98 9.67,-3.13 11.42,1.25 0.98,1.36 0.99,4.22 3.33,3.58 -0.34,-2.61 -0.44,-5.25 -0.13,-7.86 0.3,-2.25 -2.52,-0.67 -3.05,0.3 -3.72,-2.28 -8.82,-2.62 -12.57,-0.24 m -62.2,43.35 -0.05,1.36 c 1.92,0.31 5.2,0.34 4.97,3.14 0.05,6.66 0.53,13.38 -0.33,20 -0.05,3.13 -5.57,0.61 -5.11,3.62 9.82,-0.19 19.64,0.19 29.47,0.15 0.43,-2.68 0.15,-5.41 0.3,-8.1 -2.4,-1.35 -2.61,2.37 -4.03,3.48 -2.79,4.37 -8.64,2.66 -12.93,2.57 -3.23,-3.02 -1.12,-8.27 -1.72,-12.22 2.36,-0.13 5.33,-0.23 6.93,1.86 1.02,1.29 0.17,4.1 2.64,3.74 -0.14,-4.14 -0.13,-8.28 0.07,-12.41 -0.41,0.15 -1.22,0.44 -1.62,0.59 -0.36,3.97 -4.74,4.73 -7.98,4.5 -0.03,-3.39 0.12,-6.78 0.09,-10.17 4.14,-0.42 9.45,-1.43 12.44,2.29 1.21,1.07 1.65,3.51 3.67,3.03 -0.12,-2.42 -0.13,-4.84 -0.52,-7.23 -8.76,-0.09 -17.53,-0.23 -26.29,-0.2 m 34.37,0 0.25,1.25 c 2.79,0.93 5.94,2.91 5.72,6.3 0.06,5.64 0.5,11.36 -0.23,16.96 -0.66,2.48 -5.05,1.05 -4.98,3.67 4.3,-0.1 8.61,-0.03 12.91,-0.05 0.16,-0.26 0.47,-0.78 0.63,-1.04 -2.11,-0.65 -5.23,-0.98 -5.66,-3.66 -0.83,-5.37 -0.19,-10.84 -0.7,-16.23 7.08,6.94 13.7,14.34 20.74,21.33 0.65,0.76 1.78,0.41 1.8,-0.64 -0.33,-7.12 -0.26,-14.25 -0.06,-21.37 0,-3.02 2.77,-5.06 5.59,-5.23 l -0.13,-1.19 c -4.55,0.09 -9.1,0.11 -13.64,-0.15 -0.41,3.07 4.51,0.97 5.22,3.54 1.54,5.53 0.43,11.42 0.83,17.1 -6.28,-6.63 -12.48,-13.34 -18.87,-19.86 -2.86,-1.25 -6.33,-0.4 -9.42,-0.73 z"
         id="path41" />
      <path
         fill="#ffffff"
         opacity="1"
         d="m 404.23,192.23 c 6.55,-8.9 18.27,-11.83 28.8,-11.76 22,0.13 42.92,8.48 64.85,9.44 17.39,0.72 35.45,0.11 51.8,-6.46 0.23,56.82 0.02,113.65 0.1,170.48 -7.58,3.69 -16,5.21 -24.3,6.25 -14.98,1.57 -30.2,1.31 -45.02,-1.49 -18.99,-3.16 -38.09,-9.57 -57.54,-6.4 -6.82,0.97 -13.02,4.13 -18.68,7.9 -0.02,-55.99 -0.01,-111.97 -0.01,-167.96 m 75.34,21.39 c -4.26,0.99 -8.23,3.79 -10.16,7.78 -2.01,4.39 -1.97,9.69 0.18,14.02 3.35,6.37 11.89,9.27 18.46,6.38 6.94,-2.61 10.95,-10.88 8.78,-17.96 -1.95,-7.21 -10.02,-11.89 -17.26,-10.22 m -53.01,0.34 c 0.19,0.35 0.56,1.06 0.75,1.42 2.48,0.82 5.22,2.61 5.3,5.51 0.34,4.67 0.14,9.36 0.19,14.04 -0.19,1.53 0.31,3.62 -1.24,4.6 -1.32,1.1 -3.82,0.53 -4.3,2.54 4.51,0.05 9.02,-0.03 13.54,0.04 -0.11,-2.62 -4.29,-1.18 -5.11,-3.69 -1.51,-5.62 -0.4,-11.6 -1.05,-17.36 6.31,6.43 12.51,12.97 18.74,19.47 1.14,0.81 2.12,3.2 3.83,2 -0.21,-7.84 -0.63,-15.77 0.2,-23.55 0.34,-3.24 4.39,-2.49 5.62,-4.63 -4.71,-0.53 -9.48,-0.01 -14.21,-0.42 0.02,3.21 4.94,0.86 5.48,3.87 1.17,5.53 0.55,11.3 0.52,16.92 -6.03,-7.11 -12.63,-13.74 -19.12,-20.41 -3.03,-0.4 -6.09,-0.27 -9.14,-0.35 m 73.87,1.33 c 1.91,0.6 4.19,1.04 5.11,3.09 4.07,7.85 7.44,16.05 10.97,24.15 0.36,0.11 1.1,0.33 1.46,0.44 3.86,-7.92 7.38,-16 11.18,-23.94 0.59,-1.27 1.61,-2.45 3,-2.85 1,-0.52 2.8,-0.31 2.75,-1.91 -4.37,-0.15 -8.73,-0.01 -13.09,-0.12 -0.14,2.76 4.39,0.99 4.41,3.81 -0.68,6.28 -4.76,11.64 -6.7,17.6 -2.91,-5.71 -5.35,-11.7 -7.71,-17.65 -0.2,-2.61 3.04,-2.08 4.72,-2.56 -0.11,-0.29 -0.34,-0.86 -0.45,-1.15 -5.07,-0.15 -10.15,0.21 -15.22,-0.1 -0.11,0.3 -0.32,0.9 -0.43,1.19 m -76.29,43.07 c -0.28,2.87 -0.47,5.81 0.14,8.65 2.13,-0.68 2.44,-3.34 4.08,-4.66 1.84,-2.26 4.87,-2.2 7.51,-2.25 0.34,7.33 0.24,14.68 0.06,22.02 0.04,2.78 -3.6,2.43 -5.43,2.9 l 0.08,1.39 c 5.5,-0.18 11,-0.11 16.51,-0.05 0.1,-2.93 -4.4,-0.85 -5.16,-3.42 -0.67,-7.58 -0.17,-15.24 -0.25,-22.86 2.3,0.17 4.86,0.02 6.81,1.48 1.89,1.34 2.63,3.65 3.74,5.59 0.35,-0.07 1.06,-0.21 1.42,-0.27 0.11,-2.83 0.01,-5.66 -0.01,-8.49 -9.83,-0.08 -19.67,0.24 -29.5,-0.03 m 45.41,1.25 c -4.26,7.64 -6.59,16.22 -11.19,23.67 -0.9,1.79 -4.33,0.77 -4.23,3.14 4.17,-0.06 8.35,-0.09 12.53,0.03 0.26,-2.51 -3.2,-1.16 -4.38,-2.73 -0.07,-2.68 1.15,-5.12 2.03,-7.58 3.46,-0.19 6.95,-0.29 10.41,0.05 0.81,2.57 2.45,5.02 2.3,7.79 -0.94,1.68 -4.45,0 -4.14,2.48 5.11,-0.1 10.22,-0.1 15.33,0.07 0.33,-2.53 -3.74,-1.19 -4.44,-3.42 -4.33,-7.98 -7.09,-16.71 -11.05,-24.87 -1.27,-1.49 -2.75,0.07 -3.17,1.37 m 21.11,-1.14 c 0.05,0.33 0.15,0.99 0.2,1.32 1.98,0.31 5.17,0.36 5.23,3.12 0.19,6.36 0.47,12.8 -0.19,19.14 -0.1,3.17 -5.33,1.51 -5.19,4.35 4.48,-0.17 8.97,0.03 13.45,0.03 l 0.05,-1.24 c -2.67,-0.05 -5.38,-1.79 -5.57,-4.65 -0.34,-6.53 -0.26,-13.09 -0.27,-19.63 4.66,8.07 7.7,17.08 12.46,25.09 4.21,-8.17 7.74,-16.84 11.9,-25.1 -0.1,7.24 0.19,14.5 -0.15,21.73 -0.26,2.35 -2.93,2.2 -4.66,2.42 l 0.07,1.33 c 5.09,0.02 10.18,0.03 15.28,0.09 l 0.04,-1.32 c -2.14,0.04 -4.65,-0.69 -4.8,-3.21 -0.59,-6.27 -0.33,-12.61 -0.19,-18.9 0.02,-2.58 2.85,-3.09 4.83,-3.43 0.07,-0.26 0.23,-0.76 0.31,-1.02 -3.85,-0.5 -7.78,-0.19 -11.64,0.02 -3.51,6.29 -6.39,12.9 -9.38,19.44 -2.98,-6.55 -5.91,-13.12 -8.99,-19.62 -4.27,0.02 -8.54,-0.17 -12.79,0.04 m -67.37,52.52 c 2.25,0.35 2.48,-2.59 3.88,-3.77 1.84,-2.62 5.14,-2.93 8.08,-2.76 0.08,7.88 0.59,15.84 -0.33,23.68 -1.43,1.13 -5.81,0.03 -4.82,2.58 5.45,-0.27 10.92,0.03 16.38,-0.2 -0.1,-0.33 -0.28,-0.98 -0.37,-1.31 -1.94,-0.27 -5.16,-0.36 -5.05,-3.11 -0.22,-7.22 -0.05,-14.45 -0.06,-21.67 2.39,0.06 5.06,0 7.05,1.58 1.8,1.49 2.58,3.8 3.75,5.76 l 1.13,-0.62 c 0.19,-2.8 0.04,-5.61 0.08,-8.41 -9.78,-0.22 -19.57,0.32 -29.35,-0.13 -0.79,2.71 -0.2,5.59 -0.37,8.38 m 31.42,-8.32 c -0.58,2.17 2.18,1.4 3.24,2.32 1.45,0.91 2.1,2.58 2.87,4.04 3.37,7.14 6.57,14.35 9.66,21.62 0.3,1.01 0.88,1.22 1.73,0.63 3.87,-7.91 7.37,-16 11.2,-23.92 0.95,-2.24 3.38,-3.03 5.58,-3.43 -0.16,-0.32 -0.47,-0.97 -0.63,-1.29 -4.13,0.18 -8.27,0.07 -12.4,0.01 -0.27,2.7 3.77,1.01 4.37,3.36 0.35,2.83 -1.18,5.36 -2.24,7.87 -1.59,3.39 -2.85,6.93 -4.67,10.2 -2.34,-5.68 -4.97,-11.24 -7.25,-16.94 -0.03,-0.55 -0.09,-1.65 -0.12,-2.2 1.57,-0.52 3.15,-0.96 4.77,-1.29 -0.17,-0.25 -0.5,-0.74 -0.67,-0.99 -5.14,0.02 -10.29,0.18 -15.44,0.01 m 36.58,-0.04 c -0.38,3.11 4.8,0.68 5.24,3.75 0.54,6.65 0.59,13.47 -0.06,20.12 -0.23,3.04 -5.23,1.32 -5.24,4.12 4.57,-0.06 9.13,0.08 13.71,0.1 -0.06,-0.3 -0.17,-0.9 -0.22,-1.2 -2.49,-0.26 -5.12,-1.64 -5.4,-4.38 -0.41,-6.65 -0.38,-13.34 -0.29,-20 4.22,7.92 7.73,16.25 11.68,24.33 0.32,0.17 0.96,0.5 1.27,0.67 3.34,-8.55 7.55,-16.72 11.41,-25.04 -0.14,7.1 0.08,14.21 -0.12,21.31 0.05,2.75 -3,2.79 -4.98,3.07 0.09,0.24 0.27,0.72 0.36,0.96 5.05,0.49 10.26,0.16 15.38,0.28 0.29,-2.53 -3.34,-0.74 -4.16,-2.61 -1.51,-2.79 -0.9,-6.16 -1.06,-9.2 0.2,-4.25 -0.45,-8.61 0.44,-12.79 0.64,-2.45 4.73,-0.96 4.75,-3.45 -3.76,-0.11 -7.51,0.13 -11.26,0.03 -3.72,6.1 -6.7,12.65 -9.3,19.31 -1.18,-0.53 -1.34,-1.99 -1.91,-2.99 -2.45,-5.44 -4.92,-10.86 -7.42,-16.26 -4.27,-0.03 -8.55,-0.03 -12.82,-0.13 z"
         id="path43" />
      <path
         fill="#ffffff"
         opacity="1"
         d="m 237.91,205.69 c 3.37,-0.9 6.74,-1.81 10.12,-2.7 0.02,51.3 -0.03,102.6 0.01,153.91 6.75,4.19 14.63,6 22.35,7.48 15.74,2.54 31.9,2.63 47.68,0.35 17.99,-2.53 35.57,-8.52 53.9,-8.08 9.9,0.24 20.65,3.34 26.83,11.61 1.82,0 3.64,0.01 5.47,0.03 6.22,-8.19 16.87,-11.4 26.77,-11.64 17.69,-0.48 34.7,5.13 52.02,7.76 16.49,2.63 33.43,2.61 49.92,-0.06 7.67,-1.47 15.48,-3.31 22.2,-7.46 0.04,-51.28 0.01,-102.56 0.01,-153.84 3.29,0.9 6.6,1.69 9.86,2.71 -0.11,56.64 0.06,113.28 -0.09,169.92 -26.81,3.54 -53.93,5.88 -80.98,4.1 -10.02,-0.49 -19.99,-1.56 -29.96,-2.61 -10.99,-0.91 -21.98,-1.77 -32.97,-2.64 0.23,3.61 0.11,7.24 0.2,10.86 -12.56,4.83 -27.13,5.3 -39.59,-0.08 0.19,-3.56 0.03,-7.13 0.13,-10.7 -22.63,1.26 -45.11,4.29 -67.75,5.45 -25.41,1.23 -50.83,-1.09 -76.01,-4.35 -0.3,-56.67 -0.05,-113.35 -0.12,-170.02 z"
         id="path45" />
      <path
         fill="#ffffff"
         opacity="1"
         d="m 480.38,215.45 c 3,-0.9 6.43,0.37 8.05,3.07 2.83,4.37 2.68,9.99 1.87,14.94 -0.64,3.98 -3.81,8.11 -8.24,7.62 -5.31,-0.41 -7.53,-6.43 -7.71,-11.02 -0.36,-5.26 0.5,-12.31 6.03,-14.61 z"
         id="path47" />
      <path
         fill="#ffffff"
         opacity="1"
         d="m 570.41,232.37 c 4.93,0.06 9.88,-0.17 14.81,0.12 -0.13,9.27 -0.02,18.55 -0.06,27.83 -4.89,0.03 -9.78,-0.03 -14.67,0.04 -0.19,-9.33 -0.04,-18.66 -0.08,-27.99 z"
         id="path49" />
      <path
         fill="#ffffff"
         opacity="1"
         d="m 217.78,232.37 c 4.91,-0.01 9.82,-0.01 14.74,0 0,9.32 0.01,18.63 -0.01,27.95 -4.91,0.01 -9.82,0.01 -14.73,0 -0.01,-9.32 -0.01,-18.63 0,-27.95 z"
         id="path51" />
      <path
         fill="#ffffff"
         opacity="1"
         d="m 465.19,274.15 c 1.24,-3.38 2.57,-6.79 4.49,-9.85 1.3,3.3 2.71,6.55 4.07,9.83 -2.86,-0.01 -5.71,0 -8.56,0.02 z"
         id="path53" />
      <path
         fill="#ffffff"
         opacity="1"
         d="m 217.78,315.09 c 4.93,0.04 9.87,-0.12 14.8,0.09 -0.24,9.31 0.19,18.63 -0.21,27.93 -4.87,-0.14 -9.73,-0.03 -14.59,-0.07 -0.01,-9.32 -0.01,-18.64 0,-27.95 z"
         id="path55" />
      <path
         fill="#ffffff"
         opacity="1"
         d="m 570.38,315.13 c 4.92,-0.1 9.85,-0.03 14.78,-0.04 0.01,9.31 0.01,18.63 0,27.95 -4.93,-0.04 -9.86,0.11 -14.79,-0.09 0.07,-9.27 0.05,-18.55 0.01,-27.82 z"
         id="path57" />
    </g>
    <g
       id="e87722ff">
      <path
         fill="#e87722"
         opacity="1"
         d="m 20.78,433.61 c 0.08,-0.46 0.26,-1.38 0.35,-1.83 13.26,0.8 26.6,0.12 39.89,0.35 240.34,0 480.68,-0.01 721.02,0 -20.14,97.43 -55.98,191.49 -104.74,278.17 -1.1,-1.09 -2.11,-2.11 -3.2,-3.16 C 583.03,620.2 492.18,533.02 401.09,446.09 346.27,498.61 291.35,551.02 236.46,603.47 199.52,638.92 162.31,674.1 125.52,709.7 121.01,701.18 116.16,692.85 111.77,684.27 70.11,605.43 39.46,520.8 20.78,433.61 Z"
         id="path60" />
      <path
         fill="#e87722"
         opacity="1"
         d="m 249.75,804.78 c 50.48,-48.81 100.97,-97.61 151.38,-146.48 62.36,60.19 124.61,120.51 186.96,180.71 0.36,0.33 1.07,0.98 1.43,1.3 -54.6,68.22 -118.04,129.34 -188.28,181.31 -18.93,-14.25 -37.52,-28.97 -55.48,-44.43 -48.38,-41.47 -92.62,-87.67 -132.44,-137.38 12.42,-11.38 24.25,-23.4 36.43,-35.03 z"
         id="path62" />
    </g>
  </g>
</svg>
